<svg id="svg" version="1.1" xmlns="http://www.w3.org/2000/svg" xmlns:xlink="http://www.w3.org/1999/xlink" width="50" height="50" viewBox="0, 0, 400,400.67001675041877"><g id="svgg"><path id="path0" d="M71.769 72.236 C 71.726 72.351,71.709 91.780,71.733 115.410 L 71.776 158.375 73.409 158.423 L 75.042 158.471 75.042 117.163 C 75.042 81.587,75.075 75.822,75.281 75.616 C 75.609 75.289,324.095 75.251,324.422 75.578 C 324.578 75.734,324.623 103.689,324.623 200.369 L 324.623 324.958 199.934 324.958 C 86.389 324.958,75.236 324.934,75.144 324.693 C 75.088 324.547,75.042 305.851,75.042 283.146 L 75.042 241.864 73.409 241.912 L 71.776 241.960 71.776 285.092 L 71.776 328.224 199.874 328.266 L 327.973 328.308 327.931 200.209 L 327.889 72.111 199.869 72.069 C 97.541 72.035,71.833 72.069,71.769 72.236 M134.673 163.975 C 134.673 164.061,133.976 164.170,133.124 164.217 C 130.982 164.336,129.761 164.492,129.573 164.672 C 129.485 164.756,129.169 164.824,128.871 164.824 C 128.572 164.824,128.281 164.899,128.224 164.992 C 128.168 165.084,127.941 165.159,127.722 165.159 C 127.502 165.159,127.276 165.235,127.219 165.327 C 127.162 165.419,126.932 165.494,126.707 165.494 C 126.482 165.494,126.298 165.570,126.298 165.662 C 126.298 165.754,126.184 165.829,126.045 165.829 C 125.905 165.829,125.660 165.900,125.500 165.987 C 125.226 166.135,123.477 167.008,122.656 167.406 C 122.450 167.506,122.280 167.644,122.279 167.714 C 122.279 167.783,122.197 167.839,122.099 167.839 C 121.315 167.839,116.938 171.923,116.348 173.206 C 116.265 173.386,116.142 173.534,116.075 173.534 C 116.008 173.534,115.860 173.760,115.745 174.037 C 115.631 174.313,115.471 174.539,115.390 174.539 C 115.309 174.539,115.243 174.684,115.243 174.860 C 115.243 175.037,115.186 175.207,115.117 175.237 C 114.941 175.316,114.238 176.701,114.238 176.970 C 114.238 177.092,114.178 177.217,114.105 177.247 C 113.847 177.356,113.189 179.611,112.868 181.491 C 112.614 182.976,112.505 187.270,112.722 187.270 C 112.819 187.270,112.898 187.609,112.898 188.026 C 112.898 188.442,112.966 188.913,113.049 189.073 C 113.132 189.233,113.298 189.703,113.418 190.117 C 113.636 190.870,114.868 193.476,115.081 193.635 C 115.142 193.681,115.282 193.889,115.392 194.097 C 115.899 195.059,118.672 197.804,119.533 198.197 C 119.753 198.297,119.933 198.437,119.933 198.508 C 119.933 198.579,120.083 198.685,120.267 198.743 C 120.451 198.802,120.698 198.946,120.817 199.065 C 121.013 199.261,124.861 201.182,125.754 201.529 C 125.961 201.609,126.300 201.747,126.508 201.835 C 126.715 201.923,127.638 202.233,128.559 202.524 C 129.481 202.815,130.365 203.119,130.525 203.201 C 130.685 203.283,131.001 203.350,131.227 203.350 C 131.454 203.350,131.685 203.425,131.742 203.518 C 131.799 203.610,132.063 203.685,132.328 203.685 C 132.594 203.685,132.852 203.752,132.903 203.834 C 132.954 203.916,133.241 204.024,133.541 204.073 C 134.068 204.160,134.858 204.346,136.265 204.713 C 136.633 204.809,137.255 204.926,137.647 204.973 C 138.038 205.020,138.358 205.119,138.358 205.193 C 138.358 205.266,138.679 205.369,139.070 205.422 C 140.782 205.651,141.214 205.740,141.301 205.880 C 141.352 205.963,141.615 206.030,141.886 206.030 C 142.157 206.030,142.379 206.106,142.379 206.198 C 142.379 206.290,142.525 206.365,142.703 206.365 C 143.003 206.365,144.867 207.288,145.059 207.531 C 145.105 207.590,145.406 207.819,145.729 208.040 C 146.405 208.505,146.818 208.939,147.203 209.590 C 147.353 209.843,147.535 210.050,147.607 210.050 C 147.680 210.050,147.739 210.201,147.739 210.385 C 147.739 210.570,147.814 210.720,147.906 210.720 C 147.998 210.720,148.074 210.871,148.074 211.055 C 148.074 211.240,148.131 211.390,148.200 211.390 C 148.411 211.390,148.744 212.674,148.744 213.484 C 148.744 213.901,148.837 214.392,148.952 214.575 C 149.117 214.840,149.117 214.976,148.952 215.241 C 148.837 215.424,148.744 215.923,148.744 216.349 C 148.744 217.107,148.115 219.292,147.865 219.403 C 147.795 219.433,147.739 219.603,147.739 219.779 C 147.739 219.956,147.663 220.101,147.571 220.101 C 147.479 220.101,147.404 220.220,147.404 220.367 C 147.404 220.714,144.332 223.786,143.985 223.786 C 143.838 223.786,143.719 223.861,143.719 223.953 C 143.719 224.045,143.568 224.121,143.384 224.121 C 143.199 224.121,143.049 224.196,143.049 224.288 C 143.049 224.380,142.898 224.456,142.714 224.456 C 142.529 224.456,142.379 224.531,142.379 224.623 C 142.379 224.715,142.232 224.791,142.053 224.791 C 141.875 224.791,141.682 224.866,141.625 224.958 C 141.568 225.050,141.374 225.126,141.194 225.126 C 141.014 225.126,140.736 225.192,140.576 225.273 C 139.978 225.575,139.067 225.796,138.422 225.796 C 138.055 225.796,137.675 225.876,137.577 225.974 C 137.269 226.282,132.119 225.962,131.750 225.612 C 131.663 225.529,131.454 225.461,131.287 225.461 C 130.842 225.461,129.648 225.065,129.648 224.917 C 129.648 224.848,129.527 224.791,129.379 224.791 C 129.047 224.791,127.173 223.815,126.727 223.410 C 126.549 223.248,126.339 223.116,126.261 223.116 C 126.022 223.116,122.816 219.805,122.699 219.439 C 122.639 219.250,122.529 219.095,122.455 219.095 C 122.380 219.095,122.225 218.869,122.111 218.593 C 121.996 218.317,121.836 218.090,121.755 218.090 C 121.674 218.090,121.608 217.940,121.608 217.755 C 121.608 217.571,121.533 217.420,121.441 217.420 C 121.348 217.420,121.273 217.270,121.273 217.085 C 121.273 216.901,121.198 216.750,121.106 216.750 C 121.013 216.750,120.938 216.600,120.938 216.415 C 120.938 216.231,120.863 216.080,120.771 216.080 C 120.678 216.080,120.603 215.934,120.603 215.755 C 120.603 215.576,120.539 215.390,120.460 215.342 C 120.382 215.293,120.186 214.837,120.026 214.327 C 119.782 213.551,119.263 213.014,119.263 213.538 C 119.263 213.613,118.881 213.779,118.415 213.906 C 117.948 214.033,117.529 214.197,117.484 214.271 C 117.438 214.345,117.217 214.405,116.992 214.405 C 116.767 214.405,116.583 214.464,116.583 214.536 C 116.583 214.608,116.225 214.772,115.787 214.899 C 115.350 215.027,114.879 215.186,114.740 215.252 C 114.602 215.317,114.263 215.464,113.987 215.578 C 113.710 215.692,113.353 215.851,113.193 215.932 C 113.033 216.014,112.751 216.080,112.565 216.080 C 112.380 216.080,112.228 216.142,112.228 216.218 C 112.228 216.293,111.851 216.457,111.390 216.583 C 110.930 216.708,110.553 216.867,110.553 216.937 C 110.553 217.006,110.383 217.086,110.176 217.116 C 109.654 217.190,109.731 217.569,110.655 219.498 C 110.783 219.766,110.888 220.086,110.888 220.210 C 110.888 220.334,110.963 220.436,111.055 220.436 C 111.147 220.436,111.223 220.542,111.223 220.672 C 111.223 220.898,112.196 222.940,112.388 223.116 C 112.438 223.162,112.573 223.369,112.688 223.576 C 112.804 223.784,112.992 224.123,113.107 224.330 C 113.222 224.537,113.358 224.745,113.408 224.791 C 113.459 224.837,113.681 225.138,113.903 225.461 C 114.124 225.783,114.347 226.085,114.398 226.131 C 114.449 226.177,114.710 226.508,114.978 226.867 C 115.603 227.705,117.682 229.785,118.525 230.417 C 118.884 230.685,119.345 231.068,119.550 231.268 C 119.755 231.469,120.075 231.681,120.263 231.740 C 120.450 231.800,120.603 231.910,120.603 231.984 C 120.603 232.059,120.829 232.214,121.106 232.328 C 121.382 232.443,121.608 232.603,121.608 232.684 C 121.608 232.765,121.753 232.831,121.929 232.831 C 122.106 232.831,122.275 232.888,122.306 232.958 C 122.359 233.078,124.896 234.354,125.796 234.713 C 126.026 234.805,126.345 234.947,126.505 235.028 C 126.665 235.109,126.986 235.176,127.217 235.176 C 127.449 235.176,127.638 235.243,127.638 235.325 C 127.638 235.472,128.198 235.603,129.606 235.787 C 129.998 235.838,130.318 235.947,130.318 236.030 C 130.318 236.113,130.793 236.181,131.374 236.181 C 131.954 236.181,132.508 236.260,132.604 236.356 C 132.821 236.573,137.921 236.459,139.615 236.199 C 140.260 236.100,141.145 235.973,141.583 235.916 C 142.021 235.859,142.379 235.744,142.379 235.662 C 142.379 235.579,142.536 235.511,142.728 235.511 C 143.168 235.511,146.295 234.469,146.371 234.298 C 146.401 234.228,146.526 234.171,146.648 234.171 C 146.917 234.171,148.303 233.467,148.381 233.291 C 148.412 233.222,148.581 233.166,148.758 233.166 C 148.934 233.166,149.079 233.090,149.079 232.998 C 149.079 232.906,149.159 232.831,149.258 232.831 C 149.470 232.831,150.980 231.822,151.061 231.626 C 151.092 231.552,151.219 231.491,151.343 231.491 C 151.642 231.491,155.126 228.044,155.534 227.345 C 155.708 227.046,155.910 226.801,155.983 226.801 C 156.055 226.801,156.114 226.702,156.114 226.581 C 156.114 226.460,156.265 226.200,156.449 226.002 C 156.633 225.804,156.784 225.532,156.784 225.398 C 156.784 225.263,156.840 225.128,156.910 225.098 C 157.090 225.017,157.789 223.630,157.789 223.351 C 157.789 223.222,157.848 223.116,157.920 223.116 C 157.992 223.116,158.155 222.758,158.283 222.320 C 158.411 221.882,158.569 221.411,158.634 221.273 C 158.883 220.747,159.129 219.808,159.129 219.387 C 159.129 219.145,159.204 218.901,159.296 218.844 C 159.389 218.787,159.464 218.142,159.464 217.411 C 159.464 216.635,159.534 216.080,159.631 216.080 C 159.727 216.080,159.799 215.581,159.799 214.918 C 159.799 214.278,159.724 213.709,159.631 213.652 C 159.539 213.595,159.464 212.992,159.464 212.312 C 159.464 211.631,159.389 211.028,159.296 210.972 C 159.204 210.915,159.129 210.645,159.129 210.373 C 159.129 210.101,159.061 209.747,158.978 209.587 C 158.895 209.427,158.729 208.957,158.609 208.543 C 158.399 207.815,156.838 204.526,156.622 204.355 C 156.564 204.309,156.333 204.008,156.109 203.685 C 155.306 202.531,154.630 201.808,152.937 200.293 C 152.344 199.763,151.762 199.330,151.642 199.330 C 151.522 199.330,151.424 199.267,151.424 199.191 C 151.424 199.114,151.216 198.945,150.963 198.814 C 150.710 198.684,150.465 198.533,150.419 198.479 C 150.265 198.299,146.994 196.729,146.315 196.510 C 145.946 196.390,145.494 196.231,145.310 196.155 C 145.126 196.080,144.636 195.929,144.221 195.820 C 143.807 195.711,143.236 195.552,142.953 195.466 C 142.670 195.380,142.199 195.310,141.906 195.310 C 141.613 195.310,141.374 195.242,141.374 195.159 C 141.374 195.076,141.053 194.966,140.662 194.913 C 138.950 194.684,138.518 194.595,138.431 194.455 C 138.380 194.372,138.084 194.305,137.772 194.305 C 137.461 194.305,137.159 194.229,137.102 194.137 C 137.045 194.045,136.839 193.970,136.644 193.970 C 136.448 193.970,136.057 193.900,135.774 193.814 C 135.491 193.729,134.694 193.495,134.003 193.295 C 133.312 193.094,132.616 192.863,132.456 192.780 C 132.296 192.697,132.018 192.630,131.838 192.630 C 131.658 192.630,131.473 192.569,131.428 192.495 C 131.382 192.422,130.963 192.257,130.496 192.130 C 130.030 192.003,129.648 191.837,129.648 191.762 C 129.648 191.687,129.516 191.622,129.355 191.620 C 128.998 191.613,126.594 190.427,126.298 190.112 C 126.252 190.062,125.843 189.723,125.390 189.358 C 124.415 188.573,123.618 187.392,123.618 186.734 C 123.618 186.476,123.543 186.265,123.451 186.265 C 123.235 186.265,123.229 183.696,123.444 183.010 C 123.532 182.727,123.700 182.138,123.816 181.700 C 123.931 181.263,124.085 180.905,124.157 180.905 C 124.229 180.905,124.288 180.754,124.288 180.570 C 124.288 180.385,124.363 180.235,124.456 180.235 C 124.548 180.235,124.624 180.140,124.625 180.025 C 124.629 179.644,126.368 177.670,127.409 176.864 C 128.421 176.080,131.161 174.874,131.929 174.874 C 132.112 174.874,132.333 174.805,132.420 174.720 C 132.508 174.636,133.088 174.523,133.710 174.469 C 134.332 174.416,135.339 174.327,135.948 174.273 C 136.653 174.210,137.122 174.240,137.238 174.357 C 137.338 174.457,137.796 174.539,138.254 174.539 C 139.047 174.539,139.937 174.740,140.576 175.062 C 140.736 175.143,140.973 175.209,141.103 175.209 C 141.371 175.209,143.780 176.441,144.054 176.718 C 144.100 176.764,144.426 177.018,144.778 177.280 C 145.592 177.887,146.399 178.694,147.009 179.510 C 147.272 179.862,147.619 180.297,147.781 180.475 C 147.942 180.654,148.074 180.899,148.074 181.020 C 148.074 181.141,148.149 181.240,148.241 181.240 C 148.333 181.240,148.409 181.390,148.409 181.575 C 148.409 181.759,148.484 181.910,148.576 181.910 C 148.668 181.910,148.744 182.060,148.744 182.245 C 148.744 182.429,148.819 182.580,148.911 182.580 C 149.003 182.580,149.079 182.730,149.079 182.915 C 149.079 183.099,149.154 183.250,149.246 183.250 C 149.338 183.250,149.414 183.358,149.414 183.491 C 149.414 184.023,149.773 184.002,150.961 183.398 C 151.121 183.316,151.366 183.250,151.505 183.250 C 151.645 183.250,151.759 183.188,151.759 183.112 C 151.759 183.037,152.136 182.873,152.596 182.747 C 153.057 182.622,153.434 182.457,153.434 182.382 C 153.434 182.306,153.533 182.245,153.654 182.245 C 153.775 182.245,154.185 182.094,154.567 181.910 C 154.948 181.725,155.377 181.575,155.520 181.575 C 155.662 181.575,155.779 181.499,155.779 181.407 C 155.779 181.315,155.893 181.240,156.032 181.240 C 156.172 181.240,156.436 181.164,156.619 181.072 C 156.802 180.980,157.101 180.829,157.284 180.737 C 157.467 180.645,157.731 180.570,157.870 180.570 C 158.010 180.570,158.124 180.504,158.124 180.423 C 158.124 180.342,158.331 180.231,158.585 180.176 C 159.507 179.976,159.516 179.889,158.754 178.381 C 158.361 177.604,157.984 176.943,157.915 176.912 C 157.845 176.882,157.789 176.712,157.789 176.535 C 157.789 176.359,157.714 176.214,157.621 176.214 C 157.529 176.214,157.454 176.064,157.454 175.879 C 157.454 175.695,157.391 175.544,157.315 175.544 C 157.238 175.544,157.069 175.337,156.938 175.084 C 156.808 174.830,156.659 174.585,156.609 174.539 C 156.558 174.493,156.336 174.197,156.115 173.881 C 155.019 172.314,152.644 169.935,151.089 168.847 C 150.766 168.621,150.403 168.340,150.281 168.222 C 150.159 168.103,149.995 168.007,149.916 168.007 C 149.837 168.007,149.673 167.908,149.551 167.787 C 149.249 167.486,145.934 165.829,145.634 165.829 C 145.502 165.829,145.394 165.754,145.394 165.662 C 145.394 165.570,145.210 165.494,144.985 165.494 C 144.760 165.494,144.529 165.419,144.472 165.327 C 144.415 165.235,144.189 165.159,143.970 165.159 C 143.750 165.159,143.529 165.092,143.479 165.010 C 143.428 164.928,143.141 164.818,142.841 164.766 C 142.540 164.713,141.880 164.585,141.374 164.480 C 140.867 164.375,139.812 164.253,139.028 164.210 C 138.245 164.166,137.533 164.060,137.446 163.975 C 137.238 163.771,134.673 163.772,134.673 163.975 M70.282 164.950 C 70.213 165.019,69.579 165.127,68.872 165.190 C 67.570 165.306,66.523 165.487,65.159 165.831 C 64.745 165.935,64.160 166.061,63.859 166.111 C 63.559 166.161,63.272 166.268,63.221 166.350 C 63.171 166.432,62.950 166.499,62.730 166.499 C 62.511 166.499,62.285 166.575,62.228 166.667 C 62.171 166.759,61.940 166.834,61.715 166.834 C 61.491 166.834,61.307 166.910,61.307 167.002 C 61.307 167.094,61.192 167.169,61.053 167.169 C 60.914 167.169,60.650 167.245,60.467 167.337 C 60.284 167.429,59.984 167.580,59.801 167.672 C 59.618 167.764,59.354 167.839,59.215 167.839 C 59.076 167.839,58.961 167.915,58.961 168.007 C 58.961 168.099,58.811 168.174,58.626 168.174 C 58.442 168.174,58.291 168.250,58.291 168.342 C 58.291 168.434,58.147 168.509,57.970 168.509 C 57.794 168.509,57.624 168.566,57.594 168.635 C 57.563 168.704,57.198 168.943,56.784 169.167 C 56.369 169.390,55.992 169.616,55.946 169.669 C 55.900 169.722,55.693 169.860,55.486 169.975 C 55.278 170.090,54.939 170.278,54.732 170.394 C 54.525 170.509,54.317 170.644,54.271 170.695 C 54.225 170.745,53.924 170.968,53.601 171.189 C 53.279 171.411,52.977 171.637,52.931 171.692 C 52.885 171.747,52.589 171.972,52.273 172.193 C 50.760 173.251,47.961 176.050,46.903 177.562 C 46.680 177.880,46.363 178.263,46.197 178.412 C 46.032 178.561,45.896 178.749,45.896 178.830 C 45.896 178.912,45.670 179.242,45.394 179.564 C 45.118 179.887,44.892 180.245,44.892 180.360 C 44.891 180.475,44.821 180.570,44.735 180.570 C 44.649 180.570,44.531 180.720,44.473 180.904 C 44.414 181.087,44.276 181.332,44.166 181.448 C 44.055 181.564,43.708 182.148,43.395 182.747 C 43.081 183.346,42.762 183.861,42.685 183.892 C 42.609 183.922,42.546 184.040,42.546 184.153 C 42.546 184.347,42.056 185.499,41.702 186.137 C 41.614 186.297,41.541 186.542,41.541 186.681 C 41.541 186.821,41.466 186.935,41.374 186.935 C 41.281 186.935,41.206 187.108,41.206 187.320 C 41.206 187.532,41.144 187.777,41.068 187.864 C 40.992 187.952,40.832 188.363,40.714 188.777 C 40.595 189.192,40.437 189.682,40.362 189.866 C 40.222 190.210,40.077 190.826,39.928 191.709 C 39.881 191.985,39.777 192.362,39.696 192.546 C 39.519 192.948,39.374 194.070,39.258 195.938 C 39.210 196.698,39.098 197.320,39.009 197.320 C 38.722 197.320,39.046 205.423,39.360 206.114 C 39.443 206.298,39.556 206.788,39.611 207.203 C 39.665 207.617,39.752 208.277,39.804 208.668 C 39.857 209.060,39.959 209.380,40.032 209.380 C 40.105 209.380,40.210 209.644,40.266 209.966 C 40.323 210.289,40.414 210.817,40.471 211.139 C 40.527 211.461,40.623 211.725,40.685 211.725 C 40.747 211.725,40.900 212.072,41.026 212.497 C 41.151 212.921,41.393 213.558,41.565 213.912 C 41.736 214.267,41.876 214.673,41.876 214.816 C 41.876 214.959,41.951 215.075,42.044 215.075 C 42.136 215.075,42.211 215.226,42.211 215.410 C 42.211 215.595,42.286 215.745,42.379 215.745 C 42.471 215.745,42.546 215.896,42.546 216.080 C 42.546 216.265,42.621 216.415,42.714 216.415 C 42.806 216.415,42.881 216.566,42.881 216.750 C 42.881 216.935,42.938 217.086,43.007 217.087 C 43.076 217.087,43.211 217.257,43.307 217.464 C 43.683 218.273,44.319 219.361,44.598 219.671 C 44.759 219.850,44.891 220.095,44.891 220.216 C 44.891 220.337,44.950 220.436,45.023 220.436 C 45.095 220.436,45.286 220.659,45.447 220.932 C 45.608 221.205,45.834 221.525,45.949 221.644 C 46.064 221.762,46.343 222.123,46.568 222.446 C 46.793 222.768,47.130 223.192,47.316 223.387 C 47.503 223.583,48.107 224.265,48.660 224.904 C 49.213 225.543,50.030 226.363,50.476 226.726 C 50.922 227.090,51.449 227.539,51.648 227.726 C 51.847 227.912,52.274 228.247,52.596 228.471 C 52.919 228.695,53.220 228.926,53.266 228.984 C 53.434 229.194,55.936 230.821,56.092 230.821 C 56.181 230.821,56.279 230.885,56.309 230.964 C 56.360 231.093,60.122 232.970,61.139 233.374 C 61.369 233.465,61.689 233.607,61.849 233.688 C 62.009 233.769,62.287 233.836,62.467 233.836 C 62.647 233.836,62.841 233.911,62.898 234.003 C 62.955 234.095,63.223 234.171,63.494 234.171 C 63.765 234.171,63.987 234.246,63.987 234.338 C 63.987 234.430,64.235 234.506,64.539 234.506 C 64.843 234.506,65.164 234.574,65.251 234.656 C 65.415 234.811,66.232 234.956,67.839 235.114 C 68.346 235.164,68.832 235.274,68.920 235.358 C 69.129 235.560,77.387 235.559,77.387 235.358 C 77.387 235.273,77.858 235.164,78.434 235.114 C 80.181 234.962,81.072 234.814,81.072 234.675 C 81.072 234.602,81.336 234.497,81.658 234.440 C 81.981 234.384,82.508 234.292,82.831 234.236 C 83.153 234.180,83.417 234.067,83.417 233.985 C 83.417 233.903,83.643 233.836,83.920 233.836 C 84.196 233.836,84.422 233.774,84.422 233.699 C 84.422 233.623,84.799 233.459,85.260 233.333 C 85.720 233.208,86.097 233.044,86.097 232.968 C 86.097 232.893,86.191 232.831,86.307 232.832 C 86.508 232.833,89.945 231.174,90.117 230.993 C 90.163 230.944,90.371 230.810,90.578 230.695 C 90.785 230.580,91.124 230.392,91.332 230.276 C 91.539 230.161,91.746 230.026,91.792 229.975 C 91.838 229.925,92.140 229.702,92.462 229.481 C 92.785 229.259,93.086 229.033,93.132 228.978 C 93.178 228.923,93.480 228.697,93.802 228.476 C 94.125 228.254,94.426 228.031,94.472 227.980 C 94.518 227.929,94.826 227.687,95.155 227.442 C 95.918 226.873,97.762 225.032,98.788 223.812 C 99.224 223.294,99.751 222.680,99.958 222.450 C 100.165 222.219,100.335 221.985,100.335 221.929 C 100.335 221.873,100.523 221.609,100.754 221.341 C 100.984 221.073,101.172 220.760,101.172 220.645 C 101.172 220.530,101.243 220.436,101.329 220.436 C 101.415 220.436,101.533 220.285,101.591 220.101 C 101.649 219.918,101.786 219.673,101.895 219.557 C 102.092 219.349,102.756 218.187,103.092 217.464 C 103.188 217.257,103.323 217.087,103.392 217.087 C 103.461 217.086,103.518 216.935,103.518 216.750 C 103.518 216.566,103.593 216.415,103.685 216.415 C 103.777 216.415,103.853 216.265,103.853 216.080 C 103.853 215.896,103.928 215.745,104.020 215.745 C 104.112 215.745,104.188 215.646,104.188 215.526 C 104.188 215.405,104.338 214.994,104.523 214.612 C 104.707 214.231,104.858 213.809,104.858 213.674 C 104.858 213.539,104.916 213.403,104.987 213.372 C 105.115 213.317,105.996 210.656,106.363 209.213 C 106.469 208.798,106.626 208.227,106.712 207.945 C 106.797 207.662,106.868 207.115,106.868 206.730 C 106.868 206.345,106.938 206.030,107.024 206.030 C 107.383 206.030,107.528 198.653,107.220 196.064 C 107.122 195.235,106.995 194.123,106.939 193.593 C 106.883 193.063,106.768 192.630,106.685 192.630 C 106.601 192.630,106.533 192.333,106.533 191.970 C 106.533 191.607,106.457 191.263,106.365 191.206 C 106.273 191.149,106.198 190.885,106.198 190.620 C 106.198 190.354,106.122 190.090,106.030 190.034 C 105.938 189.977,105.863 189.708,105.863 189.437 C 105.863 189.166,105.787 188.945,105.695 188.945 C 105.603 188.945,105.528 188.719,105.528 188.442 C 105.528 188.166,105.466 187.940,105.390 187.940 C 105.315 187.940,105.151 187.563,105.025 187.102 C 104.900 186.642,104.735 186.265,104.660 186.265 C 104.584 186.265,104.523 186.156,104.523 186.023 C 104.523 185.786,102.556 181.740,102.361 181.575 C 102.306 181.528,102.167 181.321,102.052 181.114 C 101.937 180.907,101.748 180.567,101.633 180.360 C 101.518 180.153,101.382 179.946,101.332 179.899 C 101.281 179.853,101.059 179.552,100.837 179.229 C 100.616 178.907,100.314 178.530,100.168 178.392 C 100.021 178.254,99.723 177.888,99.507 177.578 C 98.510 176.153,94.789 172.462,94.099 172.214 C 94.001 172.179,93.694 171.934,93.418 171.670 C 93.141 171.405,92.813 171.189,92.689 171.189 C 92.564 171.189,92.462 171.127,92.462 171.050 C 92.462 170.974,92.255 170.804,92.002 170.673 C 91.748 170.542,91.395 170.304,91.216 170.142 C 91.038 169.981,90.799 169.849,90.686 169.849 C 90.573 169.849,90.455 169.793,90.424 169.724 C 90.371 169.603,89.265 168.962,88.485 168.600 C 88.279 168.504,88.109 168.369,88.109 168.300 C 88.108 168.231,87.956 168.174,87.772 168.174 C 87.588 168.174,87.437 168.099,87.437 168.007 C 87.437 167.915,87.320 167.839,87.178 167.839 C 87.035 167.839,86.628 167.699,86.274 167.528 C 85.920 167.357,85.283 167.114,84.858 166.989 C 84.434 166.864,84.087 166.702,84.087 166.630 C 84.087 166.558,83.861 166.499,83.585 166.499 C 83.308 166.499,83.082 166.432,83.082 166.350 C 83.082 166.268,82.837 166.160,82.538 166.111 C 82.238 166.061,81.654 165.933,81.240 165.826 C 80.825 165.719,80.147 165.593,79.732 165.547 C 79.317 165.500,78.907 165.394,78.819 165.310 C 78.732 165.227,78.114 165.159,77.447 165.159 C 76.780 165.159,76.188 165.084,76.131 164.992 C 76.010 164.796,70.475 164.757,70.282 164.950 M167.169 200.165 L 167.169 235.511 187.775 235.511 L 208.380 235.511 208.336 230.360 L 208.291 225.209 193.091 225.167 L 177.890 225.124 177.848 195.016 L 177.806 164.908 172.487 164.864 L 167.169 164.819 167.169 200.165 M75.377 175.377 C 75.377 175.471,75.848 175.544,76.456 175.544 C 77.049 175.544,77.581 175.620,77.638 175.712 C 77.695 175.804,78.039 175.879,78.402 175.879 C 78.765 175.879,79.062 175.955,79.062 176.047 C 79.062 176.139,79.227 176.214,79.428 176.214 C 79.849 176.214,81.748 176.851,81.985 177.071 C 82.072 177.153,82.280 177.219,82.446 177.219 C 82.611 177.219,82.747 177.295,82.747 177.387 C 82.747 177.479,82.898 177.554,83.082 177.554 C 83.266 177.554,83.417 177.630,83.417 177.722 C 83.417 177.814,83.568 177.889,83.752 177.889 C 83.936 177.889,84.087 177.965,84.087 178.057 C 84.087 178.149,84.168 178.224,84.266 178.224 C 84.479 178.224,85.989 179.233,86.069 179.429 C 86.100 179.504,86.216 179.564,86.327 179.564 C 86.438 179.564,86.842 179.847,87.224 180.193 C 87.607 180.538,88.327 181.160,88.825 181.575 C 89.323 181.989,89.963 182.630,90.248 182.998 C 90.532 183.367,90.904 183.819,91.074 184.003 C 91.244 184.188,91.565 184.602,91.789 184.925 C 92.012 185.247,92.236 185.549,92.287 185.595 C 92.337 185.641,92.473 185.848,92.588 186.055 C 92.703 186.263,92.892 186.602,93.007 186.809 C 93.122 187.016,93.257 187.224,93.308 187.270 C 93.522 187.466,94.807 190.108,94.807 190.352 C 94.807 190.499,94.864 190.620,94.933 190.621 C 95.002 190.621,95.232 191.205,95.445 191.919 C 95.657 192.632,95.902 193.448,95.989 193.730 C 96.076 194.013,96.147 194.485,96.147 194.777 C 96.147 195.070,96.223 195.310,96.315 195.310 C 96.410 195.310,96.482 195.809,96.482 196.473 C 96.482 197.112,96.558 197.682,96.650 197.739 C 96.864 197.871,96.876 202.680,96.663 202.680 C 96.578 202.680,96.470 203.227,96.423 203.894 C 96.305 205.546,96.142 206.516,95.962 206.627 C 95.880 206.678,95.812 206.875,95.812 207.065 C 95.812 207.497,95.104 209.612,94.933 209.687 C 94.864 209.718,94.805 209.869,94.803 210.022 C 94.801 210.176,94.491 210.905,94.115 211.642 C 93.738 212.379,93.345 213.151,93.240 213.357 C 93.135 213.564,92.992 213.733,92.923 213.734 C 92.854 213.735,92.797 213.816,92.797 213.915 C 92.797 214.103,91.879 215.505,91.507 215.883 C 91.388 216.005,91.290 216.173,91.290 216.256 C 91.290 216.491,87.250 220.436,87.009 220.436 C 86.891 220.436,86.770 220.496,86.739 220.571 C 86.662 220.759,85.152 221.776,84.950 221.776 C 84.859 221.776,84.760 221.835,84.729 221.907 C 84.647 222.100,81.986 223.451,81.689 223.451 C 81.549 223.451,81.410 223.507,81.379 223.577 C 81.306 223.742,79.195 224.456,78.780 224.456 C 78.604 224.456,78.387 224.524,78.300 224.607 C 77.910 224.977,70.761 225.298,70.104 224.974 C 69.918 224.883,69.426 224.770,69.012 224.723 C 67.667 224.572,67.002 224.422,67.002 224.270 C 67.002 224.188,66.817 224.121,66.591 224.121 C 66.148 224.121,65.819 224.003,64.188 223.260 C 63.609 222.997,63.024 222.781,62.890 222.781 C 62.756 222.781,62.647 222.714,62.647 222.633 C 62.647 222.551,62.515 222.443,62.353 222.392 C 62.051 222.296,61.119 221.762,60.972 221.600 C 60.925 221.549,60.624 221.327,60.302 221.106 C 59.979 220.884,59.678 220.661,59.631 220.610 C 59.585 220.559,59.264 220.306,58.918 220.048 C 58.124 219.456,56.171 217.521,55.589 216.749 C 55.346 216.427,54.988 215.983,54.793 215.762 C 54.598 215.540,54.439 215.307,54.439 215.243 C 54.439 215.180,54.251 214.908,54.020 214.641 C 53.790 214.373,53.602 214.060,53.602 213.945 C 53.601 213.830,53.542 213.735,53.469 213.735 C 53.355 213.735,51.795 210.749,51.413 209.799 C 51.025 208.835,50.586 207.389,50.586 207.076 C 50.586 206.880,50.519 206.678,50.436 206.627 C 50.264 206.521,50.100 205.577,49.984 204.020 C 49.940 203.421,49.826 202.777,49.732 202.589 C 49.463 202.049,49.749 196.133,50.080 195.394 C 50.163 195.209,50.275 194.757,50.330 194.389 C 50.536 192.995,50.627 192.630,50.772 192.630 C 50.854 192.630,50.921 192.404,50.921 192.127 C 50.921 191.851,50.997 191.625,51.089 191.625 C 51.181 191.625,51.256 191.441,51.256 191.216 C 51.256 190.991,51.332 190.760,51.424 190.704 C 51.516 190.647,51.591 190.454,51.591 190.275 C 51.591 190.096,51.667 189.950,51.759 189.950 C 51.851 189.950,51.926 189.828,51.926 189.680 C 51.926 189.438,52.877 187.478,53.095 187.270 C 53.143 187.224,53.277 187.016,53.392 186.809 C 53.507 186.602,53.696 186.263,53.811 186.055 C 53.926 185.848,54.061 185.641,54.112 185.595 C 54.162 185.549,54.387 185.247,54.612 184.925 C 55.330 183.894,55.504 183.693,56.784 182.410 C 58.141 181.051,58.720 180.541,59.631 179.901 C 59.954 179.675,60.364 179.356,60.542 179.192 C 60.721 179.028,60.966 178.894,61.087 178.894 C 61.208 178.894,61.307 178.828,61.307 178.747 C 61.307 178.666,61.533 178.506,61.809 178.392 C 62.085 178.277,62.312 178.118,62.312 178.037 C 62.312 177.956,62.462 177.889,62.647 177.889 C 62.831 177.889,62.982 177.814,62.982 177.722 C 62.982 177.630,63.132 177.554,63.317 177.554 C 63.501 177.554,63.652 177.479,63.652 177.387 C 63.652 177.295,63.787 177.219,63.953 177.219 C 64.119 177.219,64.326 177.152,64.414 177.069 C 64.691 176.807,67.606 175.879,68.152 175.879 C 68.441 175.879,68.677 175.804,68.677 175.712 C 68.677 175.620,69.110 175.543,69.640 175.542 C 70.170 175.540,70.716 175.466,70.854 175.377 C 71.193 175.158,75.377 175.158,75.377 175.377 " stroke="none" fill="#fcfcfc" fill-rule="evenodd"></path><path id="path1" d="M71.524 115.410 L 71.524 158.961 73.534 158.961 L 75.544 158.961 75.544 117.420 L 75.544 75.879 199.832 75.879 L 324.121 75.879 324.121 200.168 L 324.121 324.456 199.832 324.456 L 75.544 324.456 75.544 283.082 L 75.544 241.709 73.534 241.709 L 71.524 241.709 71.524 285.260 L 71.524 328.811 200.000 328.811 L 328.476 328.811 328.476 200.335 L 328.476 71.859 200.000 71.859 L 71.524 71.859 71.524 115.410 M327.931 200.209 L 327.973 328.308 199.874 328.266 L 71.776 328.224 71.776 285.092 L 71.776 241.960 73.409 241.912 L 75.042 241.864 75.042 283.146 C 75.042 305.851,75.088 324.547,75.144 324.693 C 75.236 324.934,86.389 324.958,199.934 324.958 L 324.623 324.958 324.623 200.369 C 324.623 103.689,324.578 75.734,324.422 75.578 C 324.095 75.251,75.609 75.289,75.281 75.616 C 75.075 75.822,75.042 81.587,75.042 117.163 L 75.042 158.471 73.409 158.423 L 71.776 158.375 71.733 115.410 C 71.709 91.780,71.726 72.351,71.769 72.236 C 71.833 72.069,97.541 72.035,199.869 72.069 L 327.889 72.111 327.931 200.209 M131.575 163.819 C 131.518 163.911,131.099 163.987,130.643 163.987 C 130.188 163.987,129.816 164.062,129.816 164.154 C 129.816 164.246,129.481 164.322,129.072 164.322 C 128.663 164.322,128.281 164.397,128.224 164.489 C 128.168 164.581,127.941 164.657,127.722 164.657 C 127.502 164.657,127.276 164.732,127.219 164.824 C 127.162 164.916,126.936 164.992,126.717 164.992 C 126.497 164.992,126.271 165.067,126.214 165.159 C 126.157 165.251,125.965 165.327,125.786 165.327 C 125.607 165.327,125.461 165.402,125.461 165.494 C 125.461 165.586,125.320 165.662,125.149 165.662 C 124.843 165.662,122.292 166.900,122.116 167.134 C 122.067 167.200,121.820 167.360,121.566 167.491 C 121.313 167.621,121.106 167.791,121.106 167.868 C 121.106 167.944,121.004 168.007,120.879 168.007 C 120.755 168.007,120.416 168.233,120.127 168.509 C 119.838 168.786,119.542 169.012,119.469 169.012 C 119.305 169.012,117.085 171.237,117.085 171.403 C 117.085 171.469,116.784 171.835,116.415 172.214 C 116.047 172.594,115.745 173.009,115.745 173.136 C 115.745 173.263,115.682 173.367,115.604 173.367 C 115.527 173.367,115.282 173.725,115.060 174.162 C 114.838 174.600,114.600 174.983,114.531 175.014 C 114.462 175.045,114.405 175.214,114.405 175.391 C 114.405 175.567,114.330 175.712,114.238 175.712 C 114.146 175.712,114.070 175.863,114.070 176.047 C 114.070 176.231,113.995 176.382,113.903 176.382 C 113.811 176.382,113.735 176.528,113.735 176.707 C 113.735 176.886,113.660 177.079,113.568 177.136 C 113.476 177.193,113.400 177.419,113.400 177.638 C 113.400 177.858,113.325 178.084,113.233 178.141 C 113.141 178.198,113.065 178.424,113.065 178.643 C 113.065 178.863,112.990 179.089,112.898 179.146 C 112.806 179.203,112.730 179.504,112.730 179.816 C 112.730 180.127,112.655 180.429,112.563 180.486 C 112.471 180.543,112.395 181.070,112.395 181.658 C 112.395 182.246,112.320 182.774,112.228 182.831 C 112.133 182.890,112.060 183.723,112.060 184.757 C 112.060 185.792,112.133 186.625,112.228 186.683 C 112.320 186.740,112.395 187.268,112.395 187.856 C 112.395 188.444,112.471 188.972,112.563 189.028 C 112.655 189.085,112.730 189.354,112.730 189.625 C 112.730 189.896,112.806 190.117,112.898 190.117 C 112.990 190.117,113.065 190.343,113.065 190.620 C 113.065 190.896,113.141 191.122,113.233 191.122 C 113.325 191.122,113.400 191.266,113.400 191.441 C 113.400 191.821,114.074 193.132,114.269 193.132 C 114.344 193.132,114.405 193.283,114.405 193.467 C 114.405 193.652,114.481 193.802,114.573 193.802 C 114.665 193.802,114.740 193.904,114.740 194.029 C 114.740 194.153,114.966 194.492,115.243 194.781 C 115.519 195.070,115.745 195.366,115.745 195.438 C 115.745 195.604,117.972 197.822,118.138 197.822 C 118.206 197.822,118.498 198.049,118.787 198.325 C 119.076 198.601,119.380 198.827,119.462 198.827 C 119.545 198.827,119.774 198.978,119.972 199.162 C 120.169 199.347,120.430 199.497,120.551 199.497 C 120.672 199.497,120.771 199.573,120.771 199.665 C 120.771 199.757,120.921 199.832,121.106 199.832 C 121.290 199.832,121.441 199.895,121.441 199.972 C 121.441 200.166,123.427 201.173,123.809 201.173 C 123.980 201.173,124.121 201.248,124.121 201.340 C 124.121 201.432,124.231 201.508,124.367 201.508 C 124.502 201.508,124.881 201.658,125.209 201.843 C 125.537 202.027,125.950 202.178,126.126 202.178 C 126.302 202.178,126.492 202.253,126.549 202.345 C 126.606 202.437,126.837 202.513,127.062 202.513 C 127.287 202.513,127.471 202.588,127.471 202.680 C 127.471 202.772,127.697 202.848,127.973 202.848 C 128.250 202.848,128.476 202.923,128.476 203.015 C 128.476 203.107,128.697 203.183,128.968 203.183 C 129.239 203.183,129.508 203.258,129.564 203.350 C 129.621 203.442,129.848 203.518,130.067 203.518 C 130.286 203.518,130.513 203.593,130.570 203.685 C 130.626 203.777,130.932 203.853,131.249 203.853 C 131.566 203.853,131.826 203.928,131.826 204.020 C 131.826 204.112,132.047 204.188,132.318 204.188 C 132.589 204.188,132.858 204.263,132.915 204.355 C 132.972 204.447,133.273 204.523,133.585 204.523 C 133.896 204.523,134.198 204.598,134.255 204.690 C 134.312 204.782,134.613 204.858,134.925 204.858 C 135.236 204.858,135.538 204.933,135.595 205.025 C 135.652 205.117,135.953 205.193,136.265 205.193 C 136.576 205.193,136.878 205.268,136.935 205.360 C 136.992 205.452,137.373 205.528,137.782 205.528 C 138.191 205.528,138.526 205.603,138.526 205.695 C 138.526 205.787,138.823 205.863,139.186 205.863 C 139.549 205.863,139.893 205.938,139.950 206.030 C 140.007 206.122,140.308 206.198,140.620 206.198 C 140.931 206.198,141.233 206.273,141.290 206.365 C 141.347 206.457,141.573 206.533,141.792 206.533 C 142.012 206.533,142.238 206.608,142.295 206.700 C 142.352 206.792,142.582 206.868,142.807 206.868 C 143.032 206.868,143.216 206.943,143.216 207.035 C 143.216 207.127,143.367 207.203,143.551 207.203 C 143.735 207.203,143.886 207.265,143.886 207.342 C 143.886 207.418,144.093 207.588,144.347 207.719 C 144.600 207.849,145.034 208.163,145.310 208.416 C 145.586 208.669,145.907 208.877,146.022 208.877 C 146.137 208.877,146.232 208.972,146.232 209.087 C 146.232 209.202,146.440 209.523,146.693 209.799 C 147.203 210.357,147.906 211.628,147.906 211.992 C 147.906 212.122,147.982 212.228,148.074 212.228 C 148.166 212.228,148.241 212.563,148.241 212.972 C 148.241 213.381,148.317 213.762,148.409 213.819 C 148.501 213.876,148.576 214.366,148.576 214.908 C 148.576 215.450,148.501 215.940,148.409 215.997 C 148.317 216.054,148.241 216.430,148.241 216.834 C 148.241 217.238,148.166 217.615,148.074 217.672 C 147.982 217.729,147.906 217.959,147.906 218.184 C 147.906 218.409,147.831 218.593,147.739 218.593 C 147.647 218.593,147.571 218.707,147.571 218.846 C 147.571 219.143,147.274 219.694,146.859 220.165 C 146.698 220.349,146.565 220.579,146.563 220.676 C 146.559 220.899,144.499 222.948,144.279 222.948 C 144.190 222.948,143.971 223.080,143.792 223.241 C 143.376 223.617,142.083 224.288,141.776 224.288 C 141.647 224.288,141.541 224.363,141.541 224.456 C 141.541 224.548,141.357 224.623,141.132 224.623 C 140.907 224.623,140.677 224.698,140.620 224.791 C 140.563 224.883,140.337 224.958,140.117 224.958 C 139.898 224.958,139.672 225.034,139.615 225.126 C 139.558 225.218,139.181 225.293,138.777 225.293 C 138.374 225.293,137.997 225.369,137.940 225.461 C 137.879 225.559,136.877 225.628,135.501 225.628 C 134.056 225.628,133.166 225.564,133.166 225.461 C 133.166 225.369,132.869 225.293,132.506 225.293 C 132.143 225.293,131.799 225.218,131.742 225.126 C 131.685 225.034,131.379 224.958,131.062 224.958 C 130.745 224.958,130.486 224.883,130.486 224.791 C 130.486 224.698,130.392 224.624,130.276 224.625 C 129.976 224.626,127.281 223.258,126.895 222.908 C 126.716 222.746,126.508 222.613,126.432 222.613 C 126.207 222.613,123.556 219.883,123.297 219.385 C 123.166 219.134,122.996 218.928,122.920 218.928 C 122.843 218.928,122.781 218.829,122.781 218.708 C 122.781 218.587,122.649 218.342,122.487 218.164 C 122.112 217.748,121.441 216.455,121.441 216.148 C 121.441 216.019,121.365 215.913,121.273 215.913 C 121.181 215.913,121.106 215.762,121.106 215.578 C 121.106 215.394,121.030 215.243,120.938 215.243 C 120.846 215.243,120.771 215.094,120.771 214.913 C 120.771 214.732,120.620 214.315,120.436 213.987 C 120.251 213.659,120.101 213.279,120.101 213.144 C 120.101 212.864,119.344 212.799,119.179 213.065 C 119.122 213.157,118.929 213.233,118.751 213.233 C 118.572 213.233,118.425 213.308,118.425 213.400 C 118.425 213.492,118.241 213.568,118.017 213.568 C 117.792 213.568,117.561 213.643,117.504 213.735 C 117.447 213.827,117.221 213.903,117.002 213.903 C 116.782 213.903,116.556 213.978,116.499 214.070 C 116.442 214.162,116.249 214.238,116.071 214.238 C 115.892 214.238,115.745 214.313,115.745 214.405 C 115.745 214.497,115.561 214.573,115.337 214.573 C 115.112 214.573,114.881 214.648,114.824 214.740 C 114.767 214.832,114.541 214.908,114.322 214.908 C 114.102 214.908,113.876 214.983,113.819 215.075 C 113.762 215.168,113.569 215.243,113.390 215.243 C 113.212 215.243,113.065 215.318,113.065 215.410 C 113.065 215.503,112.881 215.578,112.656 215.578 C 112.432 215.578,112.201 215.653,112.144 215.745 C 112.087 215.838,111.894 215.913,111.715 215.913 C 111.537 215.913,111.390 215.988,111.390 216.080 C 111.390 216.173,111.206 216.248,110.981 216.248 C 110.757 216.248,110.526 216.323,110.469 216.415 C 110.412 216.508,110.219 216.583,110.040 216.583 C 109.862 216.583,109.715 216.658,109.715 216.750 C 109.715 216.843,109.607 216.918,109.474 216.918 C 109.137 216.918,108.970 217.245,109.194 217.469 C 109.296 217.571,109.380 217.791,109.380 217.956 C 109.380 218.122,109.456 218.258,109.548 218.258 C 109.640 218.258,109.715 218.409,109.715 218.593 C 109.715 218.777,109.791 218.928,109.883 218.928 C 109.975 218.928,110.050 219.076,110.050 219.258 C 110.050 219.439,110.201 219.856,110.385 220.184 C 110.570 220.512,110.720 220.891,110.720 221.027 C 110.720 221.162,110.796 221.273,110.888 221.273 C 110.980 221.273,111.055 221.421,111.055 221.603 C 111.055 221.918,111.638 223.108,111.879 223.283 C 111.942 223.329,112.126 223.650,112.286 223.995 C 112.447 224.341,112.745 224.793,112.948 225.000 C 113.151 225.207,113.424 225.584,113.554 225.838 C 113.685 226.091,113.855 226.298,113.931 226.298 C 114.008 226.298,114.070 226.402,114.070 226.530 C 114.070 226.788,118.516 231.323,118.770 231.323 C 118.858 231.323,119.168 231.549,119.457 231.826 C 119.746 232.102,120.050 232.328,120.132 232.328 C 120.215 232.328,120.444 232.479,120.642 232.663 C 120.839 232.848,121.100 232.998,121.221 232.998 C 121.342 232.998,121.441 233.074,121.441 233.166 C 121.441 233.258,121.591 233.333,121.776 233.333 C 121.960 233.333,122.111 233.409,122.111 233.501 C 122.111 233.593,122.261 233.668,122.446 233.668 C 122.630 233.668,122.781 233.744,122.781 233.836 C 122.781 233.928,122.931 234.003,123.116 234.003 C 123.300 234.003,123.451 234.079,123.451 234.171 C 123.451 234.263,123.601 234.338,123.786 234.338 C 123.970 234.338,124.121 234.414,124.121 234.506 C 124.121 234.598,124.271 234.673,124.456 234.673 C 124.640 234.673,124.791 234.749,124.791 234.841 C 124.791 234.933,124.937 235.008,125.116 235.008 C 125.295 235.008,125.487 235.084,125.544 235.176 C 125.601 235.268,125.827 235.343,126.047 235.343 C 126.266 235.343,126.492 235.419,126.549 235.511 C 126.606 235.603,126.832 235.678,127.052 235.678 C 127.271 235.678,127.498 235.754,127.554 235.846 C 127.611 235.938,127.913 236.013,128.224 236.013 C 128.536 236.013,128.838 236.089,128.894 236.181 C 128.951 236.273,129.328 236.348,129.732 236.348 C 130.136 236.348,130.513 236.424,130.570 236.516 C 130.626 236.608,131.229 236.683,131.910 236.683 C 132.590 236.683,133.193 236.759,133.250 236.851 C 133.310 236.949,134.253 237.018,135.511 237.018 C 136.769 237.018,137.712 236.949,137.772 236.851 C 137.829 236.759,138.474 236.683,139.206 236.683 C 139.981 236.683,140.536 236.614,140.536 236.516 C 140.536 236.424,140.913 236.348,141.374 236.348 C 141.834 236.348,142.211 236.273,142.211 236.181 C 142.211 236.089,142.470 236.013,142.787 236.013 C 143.104 236.013,143.410 235.938,143.467 235.846 C 143.524 235.754,143.793 235.678,144.063 235.678 C 144.334 235.678,144.556 235.603,144.556 235.511 C 144.556 235.419,144.782 235.343,145.059 235.343 C 145.335 235.343,145.561 235.268,145.561 235.176 C 145.561 235.084,145.745 235.008,145.970 235.008 C 146.195 235.008,146.425 234.933,146.482 234.841 C 146.539 234.749,146.732 234.673,146.911 234.673 C 147.090 234.673,147.236 234.598,147.236 234.506 C 147.236 234.414,147.387 234.338,147.571 234.338 C 147.755 234.338,147.906 234.263,147.906 234.171 C 147.906 234.079,148.057 234.003,148.241 234.003 C 148.425 234.003,148.576 233.928,148.576 233.836 C 148.576 233.744,148.727 233.668,148.911 233.668 C 149.095 233.668,149.246 233.593,149.246 233.501 C 149.246 233.409,149.345 233.333,149.466 233.333 C 149.587 233.333,149.832 233.201,150.010 233.040 C 150.189 232.879,150.542 232.640,150.796 232.509 C 151.049 232.379,151.256 232.209,151.256 232.132 C 151.256 232.056,151.362 231.993,151.491 231.993 C 151.619 231.993,152.110 231.616,152.580 231.156 C 153.051 230.695,153.488 230.318,153.551 230.318 C 153.714 230.318,154.606 229.446,154.606 229.286 C 154.606 229.213,154.983 228.758,155.444 228.276 C 155.905 227.793,156.281 227.335,156.281 227.260 C 156.281 227.184,156.432 226.960,156.616 226.762 C 156.801 226.564,156.951 226.304,156.951 226.183 C 156.951 226.062,157.027 225.963,157.119 225.963 C 157.211 225.963,157.286 225.812,157.286 225.628 C 157.286 225.444,157.362 225.293,157.454 225.293 C 157.546 225.293,157.621 225.142,157.621 224.958 C 157.621 224.774,157.697 224.623,157.789 224.623 C 157.881 224.623,157.956 224.472,157.956 224.288 C 157.956 224.104,158.032 223.953,158.124 223.953 C 158.216 223.953,158.291 223.807,158.291 223.628 C 158.291 223.449,158.367 223.256,158.459 223.199 C 158.551 223.142,158.626 222.912,158.626 222.687 C 158.626 222.462,158.702 222.278,158.794 222.278 C 158.886 222.278,158.961 222.052,158.961 221.776 C 158.961 221.499,159.037 221.273,159.129 221.273 C 159.221 221.273,159.296 221.051,159.296 220.780 C 159.296 220.509,159.372 220.241,159.464 220.184 C 159.556 220.127,159.631 219.746,159.631 219.337 C 159.631 218.928,159.707 218.593,159.799 218.593 C 159.906 218.593,159.966 217.253,159.966 214.908 C 159.966 212.563,159.906 211.223,159.799 211.223 C 159.707 211.223,159.631 210.888,159.631 210.479 C 159.631 210.070,159.556 209.688,159.464 209.631 C 159.372 209.575,159.296 209.348,159.296 209.129 C 159.296 208.910,159.221 208.683,159.129 208.626 C 159.037 208.570,158.961 208.343,158.961 208.124 C 158.961 207.905,158.886 207.678,158.794 207.621 C 158.702 207.565,158.626 207.372,158.626 207.193 C 158.626 207.014,158.551 206.868,158.459 206.868 C 158.367 206.868,158.291 206.724,158.291 206.548 C 158.291 206.169,157.618 204.858,157.423 204.858 C 157.348 204.858,157.286 204.707,157.286 204.523 C 157.286 204.338,157.211 204.188,157.119 204.188 C 157.027 204.188,156.951 204.093,156.951 203.977 C 156.951 203.862,156.650 203.447,156.281 203.056 C 155.913 202.664,155.611 202.286,155.611 202.214 C 155.611 202.050,153.719 200.168,153.555 200.168 C 153.488 200.168,153.124 199.866,152.744 199.497 C 152.364 199.129,151.949 198.827,151.822 198.827 C 151.695 198.827,151.591 198.765,151.591 198.688 C 151.591 198.612,151.384 198.442,151.131 198.312 C 150.877 198.181,150.630 198.021,150.581 197.955 C 150.405 197.721,147.854 196.482,147.548 196.482 C 147.377 196.482,147.236 196.407,147.236 196.315 C 147.236 196.223,147.010 196.147,146.734 196.147 C 146.457 196.147,146.231 196.072,146.231 195.980 C 146.231 195.888,146.005 195.812,145.729 195.812 C 145.452 195.812,145.226 195.737,145.226 195.645 C 145.226 195.553,145.004 195.477,144.734 195.477 C 144.463 195.477,144.194 195.402,144.137 195.310 C 144.080 195.218,143.779 195.142,143.467 195.142 C 143.156 195.142,142.854 195.067,142.797 194.975 C 142.740 194.883,142.363 194.807,141.960 194.807 C 141.556 194.807,141.179 194.732,141.122 194.640 C 141.065 194.548,140.764 194.472,140.452 194.472 C 140.141 194.472,139.839 194.397,139.782 194.305 C 139.725 194.213,139.424 194.137,139.112 194.137 C 138.801 194.137,138.499 194.062,138.442 193.970 C 138.385 193.878,138.084 193.802,137.772 193.802 C 137.461 193.802,137.159 193.727,137.102 193.635 C 137.045 193.543,136.744 193.467,136.432 193.467 C 136.121 193.467,135.819 193.392,135.762 193.300 C 135.705 193.208,135.399 193.132,135.082 193.132 C 134.765 193.132,134.506 193.057,134.506 192.965 C 134.506 192.873,134.284 192.797,134.013 192.797 C 133.742 192.797,133.474 192.722,133.417 192.630 C 133.360 192.538,133.134 192.462,132.915 192.462 C 132.695 192.462,132.469 192.387,132.412 192.295 C 132.355 192.203,132.129 192.127,131.910 192.127 C 131.690 192.127,131.464 192.052,131.407 191.960 C 131.350 191.868,131.120 191.792,130.895 191.792 C 130.670 191.792,130.486 191.717,130.486 191.625 C 130.486 191.533,130.375 191.457,130.240 191.457 C 130.104 191.457,129.725 191.307,129.397 191.122 C 129.069 190.938,128.652 190.787,128.471 190.787 C 128.289 190.787,128.141 190.724,128.141 190.646 C 128.141 190.568,127.783 190.325,127.345 190.105 C 125.946 189.401,124.121 187.450,124.121 186.658 C 124.121 186.534,124.045 186.432,123.953 186.432 C 123.853 186.432,123.786 185.765,123.786 184.767 C 123.786 183.838,123.860 183.056,123.953 182.998 C 124.045 182.941,124.121 182.635,124.121 182.318 C 124.121 182.001,124.196 181.742,124.288 181.742 C 124.380 181.742,124.456 181.591,124.456 181.407 C 124.456 181.223,124.531 181.072,124.623 181.072 C 124.715 181.072,124.791 180.921,124.791 180.737 C 124.791 180.553,124.866 180.402,124.958 180.402 C 125.050 180.402,125.126 180.282,125.126 180.134 C 125.126 179.839,127.783 177.055,128.067 177.053 C 128.165 177.052,128.407 176.901,128.605 176.717 C 128.802 176.533,129.080 176.382,129.222 176.382 C 129.365 176.382,129.481 176.307,129.481 176.214 C 129.481 176.122,129.631 176.047,129.816 176.047 C 130.000 176.047,130.151 175.972,130.151 175.879 C 130.151 175.787,130.335 175.712,130.560 175.712 C 130.785 175.712,131.015 175.637,131.072 175.544 C 131.129 175.452,131.430 175.377,131.742 175.377 C 132.054 175.377,132.355 175.302,132.412 175.209 C 132.469 175.117,132.846 175.042,133.250 175.042 C 133.653 175.042,134.030 174.966,134.087 174.874 C 134.146 174.779,134.979 174.707,136.013 174.707 C 137.048 174.707,137.881 174.779,137.940 174.874 C 137.997 174.966,138.374 175.042,138.777 175.042 C 139.181 175.042,139.558 175.117,139.615 175.209 C 139.672 175.302,139.898 175.377,140.117 175.377 C 140.337 175.377,140.563 175.452,140.620 175.544 C 140.677 175.637,140.907 175.712,141.132 175.712 C 141.357 175.712,141.541 175.787,141.541 175.879 C 141.541 175.972,141.692 176.047,141.876 176.047 C 142.060 176.047,142.211 176.122,142.211 176.214 C 142.211 176.307,142.362 176.382,142.546 176.382 C 142.730 176.382,142.881 176.445,142.881 176.521 C 142.881 176.598,143.088 176.767,143.342 176.897 C 143.595 177.028,144.104 177.417,144.472 177.761 C 144.841 178.106,145.204 178.389,145.280 178.390 C 145.458 178.392,145.896 178.830,145.898 179.008 C 145.899 179.084,146.276 179.541,146.735 180.023 C 147.195 180.506,147.571 181.014,147.571 181.154 C 147.571 181.293,147.647 181.407,147.739 181.407 C 147.831 181.407,147.906 181.558,147.906 181.742 C 147.906 181.926,147.982 182.077,148.074 182.077 C 148.166 182.077,148.241 182.222,148.241 182.398 C 148.241 182.575,148.298 182.744,148.367 182.775 C 148.436 182.806,148.674 183.189,148.896 183.626 C 149.278 184.381,150.251 184.832,150.251 184.255 C 150.251 184.162,150.400 184.087,150.581 184.087 C 150.763 184.087,151.179 183.936,151.508 183.752 C 151.836 183.568,152.215 183.417,152.350 183.417 C 152.486 183.417,152.596 183.342,152.596 183.250 C 152.596 183.157,152.780 183.082,153.005 183.082 C 153.230 183.082,153.461 183.007,153.518 182.915 C 153.575 182.822,153.767 182.747,153.946 182.747 C 154.125 182.747,154.271 182.672,154.271 182.580 C 154.271 182.487,154.420 182.412,154.601 182.412 C 154.783 182.412,155.200 182.261,155.528 182.077 C 155.856 181.893,156.235 181.742,156.370 181.742 C 156.506 181.742,156.616 181.667,156.616 181.575 C 156.616 181.482,156.765 181.407,156.946 181.407 C 157.128 181.407,157.545 181.256,157.873 181.072 C 158.201 180.888,158.580 180.737,158.715 180.737 C 158.851 180.737,158.961 180.667,158.961 180.581 C 158.961 180.495,159.169 180.400,159.422 180.371 C 159.882 180.318,160.249 179.397,159.810 179.397 C 159.712 179.397,159.631 179.246,159.631 179.062 C 159.631 178.878,159.556 178.727,159.464 178.727 C 159.372 178.727,159.296 178.576,159.296 178.392 C 159.296 178.208,159.221 178.057,159.129 178.057 C 159.037 178.057,158.961 177.906,158.961 177.722 C 158.961 177.538,158.886 177.387,158.794 177.387 C 158.702 177.387,158.626 177.236,158.626 177.052 C 158.626 176.868,158.551 176.717,158.459 176.717 C 158.367 176.717,158.291 176.566,158.291 176.382 C 158.291 176.198,158.234 176.047,158.163 176.047 C 158.093 176.047,157.908 175.752,157.751 175.391 C 157.595 175.031,157.276 174.544,157.042 174.310 C 156.808 174.076,156.616 173.817,156.616 173.734 C 156.616 173.652,156.390 173.347,156.114 173.058 C 155.838 172.769,155.611 172.474,155.611 172.402 C 155.611 172.237,152.717 169.347,152.551 169.347 C 152.484 169.347,152.109 169.045,151.718 168.677 C 151.327 168.308,150.947 168.007,150.873 168.007 C 150.800 168.007,150.578 167.856,150.380 167.672 C 150.182 167.487,149.922 167.337,149.801 167.337 C 149.680 167.337,149.581 167.261,149.581 167.169 C 149.581 167.077,149.430 167.002,149.246 167.002 C 149.062 167.002,148.911 166.939,148.911 166.862 C 148.911 166.669,146.925 165.662,146.543 165.662 C 146.371 165.662,146.231 165.586,146.231 165.494 C 146.231 165.402,146.085 165.327,145.906 165.327 C 145.727 165.327,145.534 165.251,145.477 165.159 C 145.420 165.067,145.194 164.992,144.975 164.992 C 144.755 164.992,144.529 164.916,144.472 164.824 C 144.415 164.732,144.189 164.657,143.970 164.657 C 143.750 164.657,143.524 164.581,143.467 164.489 C 143.410 164.397,143.109 164.322,142.797 164.322 C 142.486 164.322,142.184 164.246,142.127 164.154 C 142.070 164.062,141.693 163.987,141.290 163.987 C 140.886 163.987,140.509 163.911,140.452 163.819 C 140.388 163.714,138.723 163.652,136.013 163.652 C 133.304 163.652,131.639 163.714,131.575 163.819 M137.446 163.975 C 137.533 164.060,138.245 164.166,139.028 164.210 C 139.812 164.253,140.867 164.375,141.374 164.480 C 141.880 164.585,142.540 164.713,142.841 164.766 C 143.141 164.818,143.428 164.928,143.479 165.010 C 143.529 165.092,143.750 165.159,143.970 165.159 C 144.189 165.159,144.415 165.235,144.472 165.327 C 144.529 165.419,144.760 165.494,144.985 165.494 C 145.210 165.494,145.394 165.570,145.394 165.662 C 145.394 165.754,145.502 165.829,145.634 165.829 C 145.934 165.829,149.249 167.486,149.551 167.787 C 149.673 167.908,149.837 168.007,149.916 168.007 C 149.995 168.007,150.159 168.103,150.281 168.222 C 150.403 168.340,150.766 168.621,151.089 168.847 C 152.644 169.935,155.019 172.314,156.115 173.881 C 156.336 174.197,156.558 174.493,156.609 174.539 C 156.659 174.585,156.808 174.830,156.938 175.084 C 157.069 175.337,157.238 175.544,157.315 175.544 C 157.391 175.544,157.454 175.695,157.454 175.879 C 157.454 176.064,157.529 176.214,157.621 176.214 C 157.714 176.214,157.789 176.359,157.789 176.535 C 157.789 176.712,157.845 176.882,157.915 176.912 C 157.984 176.943,158.361 177.604,158.754 178.381 C 159.516 179.889,159.507 179.976,158.585 180.176 C 158.331 180.231,158.124 180.342,158.124 180.423 C 158.124 180.504,158.010 180.570,157.870 180.570 C 157.731 180.570,157.467 180.645,157.284 180.737 C 157.101 180.829,156.802 180.980,156.619 181.072 C 156.436 181.164,156.172 181.240,156.032 181.240 C 155.893 181.240,155.779 181.315,155.779 181.407 C 155.779 181.499,155.662 181.575,155.520 181.575 C 155.377 181.575,154.948 181.725,154.567 181.910 C 154.185 182.094,153.775 182.245,153.654 182.245 C 153.533 182.245,153.434 182.306,153.434 182.382 C 153.434 182.457,153.057 182.622,152.596 182.747 C 152.136 182.873,151.759 183.037,151.759 183.112 C 151.759 183.188,151.645 183.250,151.505 183.250 C 151.366 183.250,151.121 183.316,150.961 183.398 C 149.773 184.002,149.414 184.023,149.414 183.491 C 149.414 183.358,149.338 183.250,149.246 183.250 C 149.154 183.250,149.079 183.099,149.079 182.915 C 149.079 182.730,149.003 182.580,148.911 182.580 C 148.819 182.580,148.744 182.429,148.744 182.245 C 148.744 182.060,148.668 181.910,148.576 181.910 C 148.484 181.910,148.409 181.759,148.409 181.575 C 148.409 181.390,148.333 181.240,148.241 181.240 C 148.149 181.240,148.074 181.141,148.074 181.020 C 148.074 180.899,147.942 180.654,147.781 180.475 C 147.619 180.297,147.272 179.862,147.009 179.510 C 146.399 178.694,145.592 177.887,144.778 177.280 C 144.426 177.018,144.100 176.764,144.054 176.718 C 143.780 176.441,141.371 175.209,141.103 175.209 C 140.973 175.209,140.736 175.143,140.576 175.062 C 139.937 174.740,139.047 174.539,138.254 174.539 C 137.796 174.539,137.338 174.457,137.238 174.357 C 137.122 174.240,136.653 174.210,135.948 174.273 C 135.339 174.327,134.332 174.416,133.710 174.469 C 133.088 174.523,132.508 174.636,132.420 174.720 C 132.333 174.805,132.112 174.874,131.929 174.874 C 131.161 174.874,128.421 176.080,127.409 176.864 C 126.368 177.670,124.629 179.644,124.625 180.025 C 124.624 180.140,124.548 180.235,124.456 180.235 C 124.363 180.235,124.288 180.385,124.288 180.570 C 124.288 180.754,124.229 180.905,124.157 180.905 C 124.085 180.905,123.931 181.263,123.816 181.700 C 123.700 182.138,123.532 182.727,123.444 183.010 C 123.229 183.696,123.235 186.265,123.451 186.265 C 123.543 186.265,123.618 186.476,123.618 186.734 C 123.618 187.392,124.415 188.573,125.390 189.358 C 125.843 189.723,126.252 190.062,126.298 190.112 C 126.594 190.427,128.998 191.613,129.355 191.620 C 129.516 191.622,129.648 191.687,129.648 191.762 C 129.648 191.837,130.030 192.003,130.496 192.130 C 130.963 192.257,131.382 192.422,131.428 192.495 C 131.473 192.569,131.658 192.630,131.838 192.630 C 132.018 192.630,132.296 192.697,132.456 192.780 C 132.616 192.863,133.312 193.094,134.003 193.295 C 134.694 193.495,135.491 193.729,135.774 193.814 C 136.057 193.900,136.448 193.970,136.644 193.970 C 136.839 193.970,137.045 194.045,137.102 194.137 C 137.159 194.229,137.461 194.305,137.772 194.305 C 138.084 194.305,138.380 194.372,138.431 194.455 C 138.518 194.595,138.950 194.684,140.662 194.913 C 141.053 194.966,141.374 195.076,141.374 195.159 C 141.374 195.242,141.613 195.310,141.906 195.310 C 142.199 195.310,142.670 195.380,142.953 195.466 C 143.236 195.552,143.807 195.711,144.221 195.820 C 144.636 195.929,145.126 196.080,145.310 196.155 C 145.494 196.231,145.946 196.390,146.315 196.510 C 146.994 196.729,150.265 198.299,150.419 198.479 C 150.465 198.533,150.710 198.684,150.963 198.814 C 151.216 198.945,151.424 199.114,151.424 199.191 C 151.424 199.267,151.522 199.330,151.642 199.330 C 151.762 199.330,152.344 199.763,152.937 200.293 C 154.630 201.808,155.306 202.531,156.109 203.685 C 156.333 204.008,156.564 204.309,156.622 204.355 C 156.838 204.526,158.399 207.815,158.609 208.543 C 158.729 208.957,158.895 209.427,158.978 209.587 C 159.061 209.747,159.129 210.101,159.129 210.373 C 159.129 210.645,159.204 210.915,159.296 210.972 C 159.389 211.028,159.464 211.631,159.464 212.312 C 159.464 212.992,159.539 213.595,159.631 213.652 C 159.724 213.709,159.799 214.278,159.799 214.918 C 159.799 215.581,159.727 216.080,159.631 216.080 C 159.534 216.080,159.464 216.635,159.464 217.411 C 159.464 218.142,159.389 218.787,159.296 218.844 C 159.204 218.901,159.129 219.145,159.129 219.387 C 159.129 219.808,158.883 220.747,158.634 221.273 C 158.569 221.411,158.411 221.882,158.283 222.320 C 158.155 222.758,157.992 223.116,157.920 223.116 C 157.848 223.116,157.789 223.222,157.789 223.351 C 157.789 223.630,157.090 225.017,156.910 225.098 C 156.840 225.128,156.784 225.263,156.784 225.398 C 156.784 225.532,156.633 225.804,156.449 226.002 C 156.265 226.200,156.114 226.460,156.114 226.581 C 156.114 226.702,156.055 226.801,155.983 226.801 C 155.910 226.801,155.708 227.046,155.534 227.345 C 155.126 228.044,151.642 231.491,151.343 231.491 C 151.219 231.491,151.092 231.552,151.061 231.626 C 150.980 231.822,149.470 232.831,149.258 232.831 C 149.159 232.831,149.079 232.906,149.079 232.998 C 149.079 233.090,148.934 233.166,148.758 233.166 C 148.581 233.166,148.412 233.222,148.381 233.291 C 148.303 233.467,146.917 234.171,146.648 234.171 C 146.526 234.171,146.401 234.228,146.371 234.298 C 146.295 234.469,143.168 235.511,142.728 235.511 C 142.536 235.511,142.379 235.579,142.379 235.662 C 142.379 235.744,142.021 235.859,141.583 235.916 C 141.145 235.973,140.260 236.100,139.615 236.199 C 137.921 236.459,132.821 236.573,132.604 236.356 C 132.508 236.260,131.954 236.181,131.374 236.181 C 130.793 236.181,130.318 236.113,130.318 236.030 C 130.318 235.947,129.998 235.838,129.606 235.787 C 128.198 235.603,127.638 235.472,127.638 235.325 C 127.638 235.243,127.449 235.176,127.217 235.176 C 126.986 235.176,126.665 235.109,126.505 235.028 C 126.345 234.947,126.026 234.805,125.796 234.713 C 124.896 234.354,122.359 233.078,122.306 232.958 C 122.275 232.888,122.106 232.831,121.929 232.831 C 121.753 232.831,121.608 232.765,121.608 232.684 C 121.608 232.603,121.382 232.443,121.106 232.328 C 120.829 232.214,120.603 232.059,120.603 231.984 C 120.603 231.910,120.450 231.800,120.263 231.740 C 120.075 231.681,119.755 231.469,119.550 231.268 C 119.345 231.068,118.884 230.685,118.525 230.417 C 117.682 229.785,115.603 227.705,114.978 226.867 C 114.710 226.508,114.449 226.177,114.398 226.131 C 114.347 226.085,114.124 225.783,113.903 225.461 C 113.681 225.138,113.459 224.837,113.408 224.791 C 113.358 224.745,113.222 224.537,113.107 224.330 C 112.992 224.123,112.804 223.784,112.688 223.576 C 112.573 223.369,112.438 223.162,112.388 223.116 C 112.196 222.940,111.223 220.898,111.223 220.672 C 111.223 220.542,111.147 220.436,111.055 220.436 C 110.963 220.436,110.888 220.334,110.888 220.210 C 110.888 220.086,110.783 219.766,110.655 219.498 C 109.731 217.569,109.654 217.190,110.176 217.116 C 110.383 217.086,110.553 217.006,110.553 216.937 C 110.553 216.867,110.930 216.708,111.390 216.583 C 111.851 216.457,112.228 216.293,112.228 216.218 C 112.228 216.142,112.380 216.080,112.565 216.080 C 112.751 216.080,113.033 216.014,113.193 215.932 C 113.353 215.851,113.710 215.692,113.987 215.578 C 114.263 215.464,114.602 215.317,114.740 215.252 C 114.879 215.186,115.350 215.027,115.787 214.899 C 116.225 214.772,116.583 214.608,116.583 214.536 C 116.583 214.464,116.767 214.405,116.992 214.405 C 117.217 214.405,117.438 214.345,117.484 214.271 C 117.529 214.197,117.948 214.033,118.415 213.906 C 118.881 213.779,119.263 213.613,119.263 213.538 C 119.263 213.014,119.782 213.551,120.026 214.327 C 120.186 214.837,120.382 215.293,120.460 215.342 C 120.539 215.390,120.603 215.576,120.603 215.755 C 120.603 215.934,120.678 216.080,120.771 216.080 C 120.863 216.080,120.938 216.231,120.938 216.415 C 120.938 216.600,121.013 216.750,121.106 216.750 C 121.198 216.750,121.273 216.901,121.273 217.085 C 121.273 217.270,121.348 217.420,121.441 217.420 C 121.533 217.420,121.608 217.571,121.608 217.755 C 121.608 217.940,121.674 218.090,121.755 218.090 C 121.836 218.090,121.996 218.317,122.111 218.593 C 122.225 218.869,122.380 219.095,122.455 219.095 C 122.529 219.095,122.639 219.250,122.699 219.439 C 122.816 219.805,126.022 223.116,126.261 223.116 C 126.339 223.116,126.549 223.248,126.727 223.410 C 127.173 223.815,129.047 224.791,129.379 224.791 C 129.527 224.791,129.648 224.848,129.648 224.917 C 129.648 225.065,130.842 225.461,131.287 225.461 C 131.454 225.461,131.663 225.529,131.750 225.612 C 132.119 225.962,137.269 226.282,137.577 225.974 C 137.675 225.876,138.055 225.796,138.422 225.796 C 139.067 225.796,139.978 225.575,140.576 225.273 C 140.736 225.192,141.014 225.126,141.194 225.126 C 141.374 225.126,141.568 225.050,141.625 224.958 C 141.682 224.866,141.875 224.791,142.053 224.791 C 142.232 224.791,142.379 224.715,142.379 224.623 C 142.379 224.531,142.529 224.456,142.714 224.456 C 142.898 224.456,143.049 224.380,143.049 224.288 C 143.049 224.196,143.199 224.121,143.384 224.121 C 143.568 224.121,143.719 224.045,143.719 223.953 C 143.719 223.861,143.838 223.786,143.985 223.786 C 144.332 223.786,147.404 220.714,147.404 220.367 C 147.404 220.220,147.479 220.101,147.571 220.101 C 147.663 220.101,147.739 219.956,147.739 219.779 C 147.739 219.603,147.795 219.433,147.865 219.403 C 148.115 219.292,148.744 217.107,148.744 216.349 C 148.744 215.923,148.837 215.424,148.952 215.241 C 149.117 214.976,149.117 214.840,148.952 214.575 C 148.837 214.392,148.744 213.901,148.744 213.484 C 148.744 212.674,148.411 211.390,148.200 211.390 C 148.131 211.390,148.074 211.240,148.074 211.055 C 148.074 210.871,147.998 210.720,147.906 210.720 C 147.814 210.720,147.739 210.570,147.739 210.385 C 147.739 210.201,147.680 210.050,147.607 210.050 C 147.535 210.050,147.353 209.843,147.203 209.590 C 146.818 208.939,146.405 208.505,145.729 208.040 C 145.406 207.819,145.105 207.590,145.059 207.531 C 144.867 207.288,143.003 206.365,142.703 206.365 C 142.525 206.365,142.379 206.290,142.379 206.198 C 142.379 206.106,142.157 206.030,141.886 206.030 C 141.615 206.030,141.352 205.963,141.301 205.880 C 141.214 205.740,140.782 205.651,139.070 205.422 C 138.679 205.369,138.358 205.266,138.358 205.193 C 138.358 205.119,138.038 205.020,137.647 204.973 C 137.255 204.926,136.633 204.809,136.265 204.713 C 134.858 204.346,134.068 204.160,133.541 204.073 C 133.241 204.024,132.954 203.916,132.903 203.834 C 132.852 203.752,132.594 203.685,132.328 203.685 C 132.063 203.685,131.799 203.610,131.742 203.518 C 131.685 203.425,131.454 203.350,131.227 203.350 C 131.001 203.350,130.685 203.283,130.525 203.201 C 130.365 203.119,129.481 202.815,128.559 202.524 C 127.638 202.233,126.715 201.923,126.508 201.835 C 126.300 201.747,125.961 201.609,125.754 201.529 C 124.861 201.182,121.013 199.261,120.817 199.065 C 120.698 198.946,120.451 198.802,120.267 198.743 C 120.083 198.685,119.933 198.579,119.933 198.508 C 119.933 198.437,119.753 198.297,119.533 198.197 C 118.672 197.804,115.899 195.059,115.392 194.097 C 115.282 193.889,115.142 193.681,115.081 193.635 C 114.868 193.476,113.636 190.870,113.418 190.117 C 113.298 189.703,113.132 189.233,113.049 189.073 C 112.966 188.913,112.898 188.442,112.898 188.026 C 112.898 187.609,112.819 187.270,112.722 187.270 C 112.505 187.270,112.614 182.976,112.868 181.491 C 113.189 179.611,113.847 177.356,114.105 177.247 C 114.178 177.217,114.238 177.092,114.238 176.970 C 114.238 176.701,114.941 175.316,115.117 175.237 C 115.186 175.207,115.243 175.037,115.243 174.860 C 115.243 174.684,115.309 174.539,115.390 174.539 C 115.471 174.539,115.631 174.313,115.745 174.037 C 115.860 173.760,116.008 173.534,116.075 173.534 C 116.142 173.534,116.265 173.386,116.348 173.206 C 116.938 171.923,121.315 167.839,122.099 167.839 C 122.197 167.839,122.279 167.783,122.279 167.714 C 122.280 167.644,122.450 167.506,122.656 167.406 C 123.477 167.008,125.226 166.135,125.500 165.987 C 125.660 165.900,125.905 165.829,126.045 165.829 C 126.184 165.829,126.298 165.754,126.298 165.662 C 126.298 165.570,126.482 165.494,126.707 165.494 C 126.932 165.494,127.162 165.419,127.219 165.327 C 127.276 165.235,127.502 165.159,127.722 165.159 C 127.941 165.159,128.168 165.084,128.224 164.992 C 128.281 164.899,128.572 164.824,128.871 164.824 C 129.169 164.824,129.485 164.756,129.573 164.672 C 129.761 164.492,130.982 164.336,133.124 164.217 C 133.976 164.170,134.673 164.061,134.673 163.975 C 134.673 163.772,137.238 163.771,137.446 163.975 M71.189 164.489 C 71.189 164.590,70.519 164.657,69.514 164.657 C 68.509 164.657,67.839 164.724,67.839 164.824 C 67.839 164.916,67.429 164.992,66.928 164.992 C 66.427 164.992,65.970 165.067,65.913 165.159 C 65.856 165.251,65.554 165.327,65.243 165.327 C 64.931 165.327,64.630 165.402,64.573 165.494 C 64.516 165.586,64.214 165.662,63.903 165.662 C 63.591 165.662,63.290 165.737,63.233 165.829 C 63.176 165.921,62.950 165.997,62.730 165.997 C 62.511 165.997,62.285 166.072,62.228 166.164 C 62.171 166.256,61.945 166.332,61.725 166.332 C 61.506 166.332,61.280 166.407,61.223 166.499 C 61.166 166.591,60.973 166.667,60.794 166.667 C 60.615 166.667,60.469 166.742,60.469 166.834 C 60.469 166.926,60.331 167.002,60.163 167.002 C 59.848 167.002,55.952 168.913,55.788 169.148 C 55.737 169.221,55.412 169.412,55.067 169.573 C 54.721 169.734,54.269 170.031,54.062 170.234 C 53.854 170.437,53.478 170.710,53.224 170.841 C 52.971 170.971,52.764 171.141,52.764 171.218 C 52.764 171.294,52.669 171.357,52.554 171.357 C 52.438 171.357,52.023 171.658,51.632 172.027 C 51.241 172.395,50.866 172.697,50.799 172.697 C 50.637 172.697,47.739 175.585,47.739 175.746 C 47.739 175.815,47.362 176.267,46.901 176.750 C 46.441 177.233,46.064 177.687,46.064 177.760 C 46.064 177.833,45.838 178.129,45.561 178.418 C 45.285 178.708,45.059 179.046,45.059 179.171 C 45.059 179.295,44.996 179.397,44.919 179.397 C 44.843 179.397,44.673 179.604,44.543 179.858 C 44.412 180.111,44.173 180.464,44.012 180.643 C 43.851 180.822,43.719 181.067,43.719 181.187 C 43.719 181.308,43.643 181.407,43.551 181.407 C 43.459 181.407,43.384 181.558,43.384 181.742 C 43.384 181.926,43.319 182.077,43.240 182.077 C 43.050 182.077,41.371 185.427,41.372 185.804 C 41.373 185.965,41.298 186.097,41.206 186.097 C 41.114 186.097,41.039 186.243,41.039 186.422 C 41.039 186.601,40.963 186.794,40.871 186.851 C 40.779 186.908,40.704 187.134,40.704 187.353 C 40.704 187.573,40.628 187.799,40.536 187.856 C 40.444 187.913,40.369 188.139,40.369 188.358 C 40.369 188.578,40.293 188.804,40.201 188.861 C 40.109 188.918,40.034 189.144,40.034 189.363 C 40.034 189.583,39.958 189.809,39.866 189.866 C 39.774 189.923,39.698 190.224,39.698 190.536 C 39.698 190.848,39.623 191.149,39.531 191.206 C 39.439 191.263,39.363 191.644,39.363 192.053 C 39.363 192.463,39.288 192.797,39.196 192.797 C 39.103 192.797,39.028 193.244,39.028 193.802 C 39.028 194.361,38.954 194.807,38.861 194.807 C 38.760 194.807,38.693 195.530,38.693 196.640 C 38.693 197.681,38.621 198.517,38.526 198.576 C 38.433 198.633,38.358 199.388,38.358 200.261 C 38.358 201.204,38.426 201.843,38.526 201.843 C 38.628 201.843,38.693 202.593,38.693 203.759 C 38.693 204.856,38.765 205.720,38.861 205.779 C 38.953 205.836,39.028 206.288,39.028 206.784 C 39.028 207.280,39.104 207.732,39.196 207.789 C 39.288 207.846,39.363 208.190,39.363 208.553 C 39.363 208.916,39.439 209.213,39.531 209.213 C 39.623 209.213,39.698 209.472,39.698 209.789 C 39.698 210.106,39.774 210.412,39.866 210.469 C 39.958 210.526,40.034 210.827,40.034 211.139 C 40.034 211.451,40.109 211.752,40.201 211.809 C 40.293 211.866,40.369 212.059,40.369 212.238 C 40.369 212.417,40.444 212.563,40.536 212.563 C 40.628 212.563,40.704 212.747,40.704 212.972 C 40.704 213.197,40.779 213.427,40.871 213.484 C 40.963 213.541,41.039 213.732,41.039 213.908 C 41.039 214.084,41.189 214.496,41.374 214.824 C 41.558 215.152,41.709 215.531,41.709 215.667 C 41.709 215.802,41.784 215.913,41.876 215.913 C 41.968 215.913,42.044 216.064,42.044 216.248 C 42.044 216.432,42.119 216.583,42.211 216.583 C 42.303 216.583,42.379 216.734,42.379 216.918 C 42.379 217.102,42.436 217.253,42.507 217.253 C 42.577 217.253,42.761 217.545,42.915 217.901 C 43.070 218.257,43.298 218.653,43.422 218.780 C 43.546 218.908,43.780 219.295,43.942 219.640 C 44.105 219.986,44.403 220.438,44.606 220.645 C 44.809 220.852,45.082 221.229,45.213 221.482 C 45.343 221.736,45.513 221.943,45.589 221.943 C 45.666 221.943,45.729 222.038,45.729 222.153 C 45.729 222.269,46.030 222.684,46.399 223.075 C 46.767 223.466,47.069 223.847,47.069 223.920 C 47.069 224.099,50.937 227.973,51.116 227.973 C 51.193 227.973,51.576 228.275,51.967 228.643 C 52.358 229.012,52.773 229.313,52.889 229.313 C 53.004 229.313,53.099 229.376,53.099 229.452 C 53.099 229.529,53.306 229.699,53.559 229.829 C 53.813 229.960,54.166 230.199,54.345 230.360 C 54.523 230.521,54.734 230.653,54.812 230.653 C 54.891 230.653,55.117 230.804,55.315 230.988 C 55.513 231.173,55.773 231.323,55.894 231.323 C 56.015 231.323,56.114 231.399,56.114 231.491 C 56.114 231.583,56.265 231.658,56.449 231.658 C 56.633 231.658,56.784 231.721,56.784 231.798 C 56.784 231.991,58.771 232.998,59.153 232.998 C 59.324 232.998,59.464 233.074,59.464 233.166 C 59.464 233.258,59.615 233.333,59.799 233.333 C 59.983 233.333,60.134 233.409,60.134 233.501 C 60.134 233.593,60.280 233.668,60.459 233.668 C 60.638 233.668,60.831 233.744,60.888 233.836 C 60.945 233.928,61.171 234.003,61.390 234.003 C 61.610 234.003,61.836 234.079,61.893 234.171 C 61.950 234.263,62.176 234.338,62.395 234.338 C 62.615 234.338,62.841 234.414,62.898 234.506 C 62.955 234.598,63.181 234.673,63.400 234.673 C 63.620 234.673,63.846 234.749,63.903 234.841 C 63.960 234.933,64.261 235.008,64.573 235.008 C 64.884 235.008,65.186 235.084,65.243 235.176 C 65.300 235.268,65.677 235.343,66.080 235.343 C 66.484 235.343,66.861 235.419,66.918 235.511 C 66.975 235.603,67.582 235.678,68.268 235.678 C 68.987 235.678,69.514 235.749,69.514 235.846 C 69.514 235.952,70.823 236.013,73.106 236.013 C 75.319 236.013,76.737 235.949,76.801 235.846 C 76.858 235.754,77.427 235.678,78.067 235.678 C 78.730 235.678,79.229 235.606,79.229 235.511 C 79.229 235.419,79.606 235.343,80.067 235.343 C 80.528 235.343,80.905 235.268,80.905 235.176 C 80.905 235.084,81.164 235.008,81.481 235.008 C 81.798 235.008,82.104 234.933,82.161 234.841 C 82.218 234.749,82.519 234.673,82.831 234.673 C 83.142 234.673,83.444 234.598,83.501 234.506 C 83.558 234.414,83.784 234.338,84.003 234.338 C 84.223 234.338,84.449 234.263,84.506 234.171 C 84.563 234.079,84.756 234.003,84.935 234.003 C 85.113 234.003,85.260 233.928,85.260 233.836 C 85.260 233.744,85.444 233.668,85.669 233.668 C 85.893 233.668,86.124 233.593,86.181 233.501 C 86.238 233.409,86.431 233.333,86.610 233.333 C 86.788 233.333,86.935 233.258,86.935 233.166 C 86.935 233.074,87.085 232.998,87.270 232.998 C 87.454 232.998,87.605 232.923,87.605 232.831 C 87.605 232.739,87.755 232.663,87.940 232.663 C 88.124 232.663,88.275 232.588,88.275 232.496 C 88.275 232.404,88.425 232.328,88.610 232.328 C 88.794 232.328,88.945 232.253,88.945 232.161 C 88.945 232.069,89.095 231.993,89.280 231.993 C 89.464 231.993,89.615 231.918,89.615 231.826 C 89.615 231.734,89.765 231.658,89.950 231.658 C 90.134 231.658,90.285 231.583,90.285 231.491 C 90.285 231.399,90.384 231.323,90.504 231.323 C 90.625 231.323,90.886 231.173,91.084 230.988 C 91.281 230.804,91.559 230.653,91.702 230.653 C 91.844 230.653,91.960 230.578,91.960 230.486 C 91.960 230.394,92.054 230.318,92.169 230.317 C 92.284 230.317,92.619 230.091,92.914 229.815 C 93.208 229.539,93.510 229.313,93.584 229.312 C 93.658 229.312,93.959 229.086,94.254 228.810 C 94.548 228.534,94.859 228.308,94.945 228.308 C 95.139 228.308,100.000 223.448,100.000 223.254 C 100.000 223.176,100.226 222.876,100.503 222.587 C 100.779 222.297,101.005 221.959,101.005 221.834 C 101.005 221.710,101.068 221.608,101.144 221.608 C 101.221 221.608,101.390 221.401,101.521 221.147 C 101.652 220.894,101.891 220.541,102.052 220.362 C 102.213 220.183,102.345 219.938,102.345 219.818 C 102.345 219.697,102.420 219.598,102.513 219.598 C 102.605 219.598,102.680 219.447,102.680 219.263 C 102.680 219.079,102.745 218.928,102.824 218.928 C 103.015 218.928,105.027 214.909,105.026 214.531 C 105.026 214.370,105.101 214.238,105.193 214.238 C 105.285 214.238,105.360 214.092,105.360 213.913 C 105.360 213.734,105.436 213.541,105.528 213.484 C 105.620 213.427,105.695 213.201,105.695 212.982 C 105.695 212.762,105.771 212.536,105.863 212.479 C 105.955 212.422,106.030 212.196,106.030 211.977 C 106.030 211.757,106.106 211.531,106.198 211.474 C 106.290 211.417,106.365 211.191,106.365 210.972 C 106.365 210.752,106.441 210.526,106.533 210.469 C 106.625 210.412,106.700 210.111,106.700 209.799 C 106.700 209.487,106.776 209.186,106.868 209.129 C 106.960 209.072,107.035 208.771,107.035 208.459 C 107.035 208.147,107.111 207.846,107.203 207.789 C 107.295 207.732,107.370 207.280,107.370 206.784 C 107.370 206.288,107.446 205.836,107.538 205.779 C 107.644 205.713,107.705 203.683,107.705 200.241 C 107.705 196.730,107.646 194.807,107.538 194.807 C 107.446 194.807,107.370 194.397,107.370 193.896 C 107.370 193.395,107.295 192.938,107.203 192.881 C 107.111 192.824,107.035 192.447,107.035 192.044 C 107.035 191.640,106.960 191.263,106.868 191.206 C 106.776 191.149,106.700 190.881,106.700 190.610 C 106.700 190.339,106.625 190.117,106.533 190.117 C 106.441 190.117,106.365 189.858,106.365 189.541 C 106.365 189.224,106.290 188.918,106.198 188.861 C 106.106 188.804,106.030 188.578,106.030 188.358 C 106.030 188.139,105.955 187.913,105.863 187.856 C 105.771 187.799,105.695 187.606,105.695 187.427 C 105.695 187.248,105.620 187.102,105.528 187.102 C 105.436 187.102,105.360 186.918,105.360 186.693 C 105.360 186.468,105.285 186.238,105.193 186.181 C 105.101 186.124,105.025 185.931,105.025 185.752 C 105.025 185.573,104.950 185.427,104.858 185.427 C 104.765 185.427,104.690 185.276,104.690 185.092 C 104.690 184.908,104.615 184.757,104.523 184.757 C 104.430 184.757,104.355 184.617,104.355 184.446 C 104.355 184.064,103.348 182.077,103.155 182.077 C 103.078 182.077,103.015 181.926,103.015 181.742 C 103.015 181.558,102.957 181.407,102.887 181.407 C 102.817 181.407,102.631 181.112,102.475 180.751 C 102.319 180.391,101.999 179.904,101.765 179.670 C 101.531 179.436,101.340 179.177,101.340 179.094 C 101.340 179.012,101.114 178.708,100.838 178.418 C 100.561 178.129,100.335 177.833,100.335 177.760 C 100.335 177.687,99.958 177.233,99.497 176.750 C 99.037 176.267,98.660 175.815,98.660 175.746 C 98.660 175.585,96.096 173.032,95.935 173.032 C 95.868 173.032,95.493 172.730,95.102 172.362 C 94.711 171.993,94.333 171.692,94.262 171.692 C 94.192 171.692,93.898 171.466,93.608 171.189 C 93.319 170.913,92.981 170.687,92.856 170.687 C 92.732 170.687,92.630 170.624,92.630 170.548 C 92.630 170.471,92.423 170.301,92.169 170.171 C 91.916 170.040,91.562 169.801,91.384 169.640 C 91.205 169.479,90.960 169.347,90.839 169.347 C 90.719 169.347,90.620 169.271,90.620 169.179 C 90.620 169.087,90.469 169.012,90.285 169.012 C 90.101 169.012,89.950 168.947,89.950 168.868 C 89.950 168.678,86.599 166.999,86.223 167.001 C 86.062 167.001,85.930 166.926,85.930 166.834 C 85.930 166.742,85.783 166.667,85.605 166.667 C 85.426 166.667,85.233 166.591,85.176 166.499 C 85.119 166.407,84.893 166.332,84.673 166.332 C 84.454 166.332,84.228 166.256,84.171 166.164 C 84.114 166.072,83.888 165.997,83.668 165.997 C 83.449 165.997,83.223 165.921,83.166 165.829 C 83.109 165.737,82.807 165.662,82.496 165.662 C 82.184 165.662,81.883 165.586,81.826 165.494 C 81.769 165.402,81.467 165.327,81.156 165.327 C 80.844 165.327,80.543 165.251,80.486 165.159 C 80.429 165.067,79.977 164.992,79.481 164.992 C 78.985 164.992,78.533 164.916,78.476 164.824 C 78.419 164.732,77.668 164.657,76.801 164.657 C 75.934 164.657,75.183 164.582,75.126 164.489 C 75.066 164.393,74.203 164.322,73.106 164.322 C 71.940 164.322,71.189 164.387,71.189 164.489 M166.778 164.433 C 166.717 164.495,166.667 180.625,166.667 200.279 L 166.667 236.013 187.772 236.013 L 208.878 236.013 208.878 230.486 L 208.878 224.958 193.467 224.958 L 178.057 224.958 178.057 194.640 L 178.057 164.322 172.473 164.322 C 169.403 164.322,166.840 164.372,166.778 164.433 M76.131 164.992 C 76.188 165.084,76.780 165.159,77.447 165.159 C 78.114 165.159,78.732 165.227,78.819 165.310 C 78.907 165.394,79.317 165.500,79.732 165.547 C 80.147 165.593,80.825 165.719,81.240 165.826 C 81.654 165.933,82.238 166.061,82.538 166.111 C 82.837 166.160,83.082 166.268,83.082 166.350 C 83.082 166.432,83.308 166.499,83.585 166.499 C 83.861 166.499,84.087 166.558,84.087 166.630 C 84.087 166.702,84.434 166.864,84.858 166.989 C 85.283 167.114,85.920 167.357,86.274 167.528 C 86.628 167.699,87.035 167.839,87.178 167.839 C 87.320 167.839,87.437 167.915,87.437 168.007 C 87.437 168.099,87.588 168.174,87.772 168.174 C 87.956 168.174,88.108 168.231,88.109 168.300 C 88.109 168.369,88.279 168.504,88.485 168.600 C 89.265 168.962,90.371 169.603,90.424 169.724 C 90.455 169.793,90.573 169.849,90.686 169.849 C 90.799 169.849,91.038 169.981,91.216 170.142 C 91.395 170.304,91.748 170.542,92.002 170.673 C 92.255 170.804,92.462 170.974,92.462 171.050 C 92.462 171.127,92.564 171.189,92.689 171.189 C 92.813 171.189,93.141 171.405,93.418 171.670 C 93.694 171.934,94.001 172.179,94.099 172.214 C 94.789 172.462,98.510 176.153,99.507 177.578 C 99.723 177.888,100.021 178.254,100.168 178.392 C 100.314 178.530,100.616 178.907,100.837 179.229 C 101.059 179.552,101.281 179.853,101.332 179.899 C 101.382 179.946,101.518 180.153,101.633 180.360 C 101.748 180.567,101.937 180.907,102.052 181.114 C 102.167 181.321,102.306 181.528,102.361 181.575 C 102.556 181.740,104.523 185.786,104.523 186.023 C 104.523 186.156,104.584 186.265,104.660 186.265 C 104.735 186.265,104.900 186.642,105.025 187.102 C 105.151 187.563,105.315 187.940,105.390 187.940 C 105.466 187.940,105.528 188.166,105.528 188.442 C 105.528 188.719,105.603 188.945,105.695 188.945 C 105.787 188.945,105.863 189.166,105.863 189.437 C 105.863 189.708,105.938 189.977,106.030 190.034 C 106.122 190.090,106.198 190.354,106.198 190.620 C 106.198 190.885,106.273 191.149,106.365 191.206 C 106.457 191.263,106.533 191.607,106.533 191.970 C 106.533 192.333,106.601 192.630,106.685 192.630 C 106.768 192.630,106.883 193.063,106.939 193.593 C 106.995 194.123,107.122 195.235,107.220 196.064 C 107.528 198.653,107.383 206.030,107.024 206.030 C 106.938 206.030,106.868 206.345,106.868 206.730 C 106.868 207.115,106.797 207.662,106.712 207.945 C 106.626 208.227,106.469 208.798,106.363 209.213 C 105.996 210.656,105.115 213.317,104.987 213.372 C 104.916 213.403,104.858 213.539,104.858 213.674 C 104.858 213.809,104.707 214.231,104.523 214.612 C 104.338 214.994,104.188 215.405,104.188 215.526 C 104.188 215.646,104.112 215.745,104.020 215.745 C 103.928 215.745,103.853 215.896,103.853 216.080 C 103.853 216.265,103.777 216.415,103.685 216.415 C 103.593 216.415,103.518 216.566,103.518 216.750 C 103.518 216.935,103.461 217.086,103.392 217.087 C 103.323 217.087,103.188 217.257,103.092 217.464 C 102.756 218.187,102.092 219.349,101.895 219.557 C 101.786 219.673,101.649 219.918,101.591 220.101 C 101.533 220.285,101.415 220.436,101.329 220.436 C 101.243 220.436,101.172 220.530,101.172 220.645 C 101.172 220.760,100.984 221.073,100.754 221.341 C 100.523 221.609,100.335 221.873,100.335 221.929 C 100.335 221.985,100.165 222.219,99.958 222.450 C 99.751 222.680,99.224 223.294,98.788 223.812 C 97.762 225.032,95.918 226.873,95.155 227.442 C 94.826 227.687,94.518 227.929,94.472 227.980 C 94.426 228.031,94.125 228.254,93.802 228.476 C 93.480 228.697,93.178 228.923,93.132 228.978 C 93.086 229.033,92.785 229.259,92.462 229.481 C 92.140 229.702,91.838 229.925,91.792 229.975 C 91.746 230.026,91.539 230.161,91.332 230.276 C 91.124 230.392,90.785 230.580,90.578 230.695 C 90.371 230.810,90.163 230.944,90.117 230.993 C 89.945 231.174,86.508 232.833,86.307 232.832 C 86.191 232.831,86.097 232.893,86.097 232.968 C 86.097 233.044,85.720 233.208,85.260 233.333 C 84.799 233.459,84.422 233.623,84.422 233.699 C 84.422 233.774,84.196 233.836,83.920 233.836 C 83.643 233.836,83.417 233.903,83.417 233.985 C 83.417 234.067,83.153 234.180,82.831 234.236 C 82.508 234.292,81.981 234.384,81.658 234.440 C 81.336 234.497,81.072 234.602,81.072 234.675 C 81.072 234.814,80.181 234.962,78.434 235.114 C 77.858 235.164,77.387 235.273,77.387 235.358 C 77.387 235.559,69.129 235.560,68.920 235.358 C 68.832 235.274,68.346 235.164,67.839 235.114 C 66.232 234.956,65.415 234.811,65.251 234.656 C 65.164 234.574,64.843 234.506,64.539 234.506 C 64.235 234.506,63.987 234.430,63.987 234.338 C 63.987 234.246,63.765 234.171,63.494 234.171 C 63.223 234.171,62.955 234.095,62.898 234.003 C 62.841 233.911,62.647 233.836,62.467 233.836 C 62.287 233.836,62.009 233.769,61.849 233.688 C 61.689 233.607,61.369 233.465,61.139 233.374 C 60.122 232.970,56.360 231.093,56.309 230.964 C 56.279 230.885,56.181 230.821,56.092 230.821 C 55.936 230.821,53.434 229.194,53.266 228.984 C 53.220 228.926,52.919 228.695,52.596 228.471 C 52.274 228.247,51.847 227.912,51.648 227.726 C 51.449 227.539,50.922 227.090,50.476 226.726 C 50.030 226.363,49.213 225.543,48.660 224.904 C 48.107 224.265,47.503 223.583,47.316 223.387 C 47.130 223.192,46.793 222.768,46.568 222.446 C 46.343 222.123,46.064 221.762,45.949 221.644 C 45.834 221.525,45.608 221.205,45.447 220.932 C 45.286 220.659,45.095 220.436,45.023 220.436 C 44.950 220.436,44.891 220.337,44.891 220.216 C 44.891 220.095,44.759 219.850,44.598 219.671 C 44.319 219.361,43.683 218.273,43.307 217.464 C 43.211 217.257,43.076 217.087,43.007 217.087 C 42.938 217.086,42.881 216.935,42.881 216.750 C 42.881 216.566,42.806 216.415,42.714 216.415 C 42.621 216.415,42.546 216.265,42.546 216.080 C 42.546 215.896,42.471 215.745,42.379 215.745 C 42.286 215.745,42.211 215.595,42.211 215.410 C 42.211 215.226,42.136 215.075,42.044 215.075 C 41.951 215.075,41.876 214.959,41.876 214.816 C 41.876 214.673,41.736 214.267,41.565 213.912 C 41.393 213.558,41.151 212.921,41.026 212.497 C 40.900 212.072,40.747 211.725,40.685 211.725 C 40.623 211.725,40.527 211.461,40.471 211.139 C 40.414 210.817,40.323 210.289,40.266 209.966 C 40.210 209.644,40.105 209.380,40.032 209.380 C 39.959 209.380,39.857 209.060,39.804 208.668 C 39.752 208.277,39.665 207.617,39.611 207.203 C 39.556 206.788,39.443 206.298,39.360 206.114 C 39.046 205.423,38.722 197.320,39.009 197.320 C 39.098 197.320,39.210 196.698,39.258 195.938 C 39.374 194.070,39.519 192.948,39.696 192.546 C 39.777 192.362,39.881 191.985,39.928 191.709 C 40.077 190.826,40.222 190.210,40.362 189.866 C 40.437 189.682,40.595 189.192,40.714 188.777 C 40.832 188.363,40.992 187.952,41.068 187.864 C 41.144 187.777,41.206 187.532,41.206 187.320 C 41.206 187.108,41.281 186.935,41.374 186.935 C 41.466 186.935,41.541 186.821,41.541 186.681 C 41.541 186.542,41.614 186.297,41.702 186.137 C 42.056 185.499,42.546 184.347,42.546 184.153 C 42.546 184.040,42.609 183.922,42.685 183.892 C 42.762 183.861,43.081 183.346,43.395 182.747 C 43.708 182.148,44.055 181.564,44.166 181.448 C 44.276 181.332,44.414 181.087,44.473 180.904 C 44.531 180.720,44.649 180.570,44.735 180.570 C 44.821 180.570,44.891 180.475,44.892 180.360 C 44.892 180.245,45.118 179.887,45.394 179.564 C 45.670 179.242,45.896 178.912,45.896 178.830 C 45.896 178.749,46.032 178.561,46.197 178.412 C 46.363 178.263,46.680 177.880,46.903 177.562 C 47.961 176.050,50.760 173.251,52.273 172.193 C 52.589 171.972,52.885 171.747,52.931 171.692 C 52.977 171.637,53.279 171.411,53.601 171.189 C 53.924 170.968,54.225 170.745,54.271 170.695 C 54.317 170.644,54.525 170.509,54.732 170.394 C 54.939 170.278,55.278 170.090,55.486 169.975 C 55.693 169.860,55.900 169.722,55.946 169.669 C 55.992 169.616,56.369 169.390,56.784 169.167 C 57.198 168.943,57.563 168.704,57.594 168.635 C 57.624 168.566,57.794 168.509,57.970 168.509 C 58.147 168.509,58.291 168.434,58.291 168.342 C 58.291 168.250,58.442 168.174,58.626 168.174 C 58.811 168.174,58.961 168.099,58.961 168.007 C 58.961 167.915,59.076 167.839,59.215 167.839 C 59.354 167.839,59.618 167.764,59.801 167.672 C 59.984 167.580,60.284 167.429,60.467 167.337 C 60.650 167.245,60.914 167.169,61.053 167.169 C 61.192 167.169,61.307 167.094,61.307 167.002 C 61.307 166.910,61.491 166.834,61.715 166.834 C 61.940 166.834,62.171 166.759,62.228 166.667 C 62.285 166.575,62.511 166.499,62.730 166.499 C 62.950 166.499,63.171 166.432,63.221 166.350 C 63.272 166.268,63.559 166.161,63.859 166.111 C 64.160 166.061,64.745 165.935,65.159 165.831 C 66.523 165.487,67.570 165.306,68.872 165.190 C 69.579 165.127,70.213 165.019,70.282 164.950 C 70.475 164.757,76.010 164.796,76.131 164.992 M177.848 195.016 L 177.890 225.124 193.091 225.167 L 208.291 225.209 208.336 230.360 L 208.380 235.511 187.775 235.511 L 167.169 235.511 167.169 200.165 L 167.169 164.819 172.487 164.864 L 177.806 164.908 177.848 195.016 M70.854 175.377 C 70.716 175.466,70.170 175.540,69.640 175.542 C 69.110 175.543,68.677 175.620,68.677 175.712 C 68.677 175.804,68.441 175.879,68.152 175.879 C 67.606 175.879,64.691 176.807,64.414 177.069 C 64.326 177.152,64.119 177.219,63.953 177.219 C 63.787 177.219,63.652 177.295,63.652 177.387 C 63.652 177.479,63.501 177.554,63.317 177.554 C 63.132 177.554,62.982 177.630,62.982 177.722 C 62.982 177.814,62.831 177.889,62.647 177.889 C 62.462 177.889,62.312 177.956,62.312 178.037 C 62.312 178.118,62.085 178.277,61.809 178.392 C 61.533 178.506,61.307 178.666,61.307 178.747 C 61.307 178.828,61.208 178.894,61.087 178.894 C 60.966 178.894,60.721 179.028,60.542 179.192 C 60.364 179.356,59.954 179.675,59.631 179.901 C 58.720 180.541,58.141 181.051,56.784 182.410 C 55.504 183.693,55.330 183.894,54.612 184.925 C 54.387 185.247,54.162 185.549,54.112 185.595 C 54.061 185.641,53.926 185.848,53.811 186.055 C 53.696 186.263,53.507 186.602,53.392 186.809 C 53.277 187.016,53.143 187.224,53.095 187.270 C 52.877 187.478,51.926 189.438,51.926 189.680 C 51.926 189.828,51.851 189.950,51.759 189.950 C 51.667 189.950,51.591 190.096,51.591 190.275 C 51.591 190.454,51.516 190.647,51.424 190.704 C 51.332 190.760,51.256 190.991,51.256 191.216 C 51.256 191.441,51.181 191.625,51.089 191.625 C 50.997 191.625,50.921 191.851,50.921 192.127 C 50.921 192.404,50.854 192.630,50.772 192.630 C 50.627 192.630,50.536 192.995,50.330 194.389 C 50.275 194.757,50.163 195.209,50.080 195.394 C 49.749 196.133,49.463 202.049,49.732 202.589 C 49.826 202.777,49.940 203.421,49.984 204.020 C 50.100 205.577,50.264 206.521,50.436 206.627 C 50.519 206.678,50.586 206.880,50.586 207.076 C 50.586 207.389,51.025 208.835,51.413 209.799 C 51.795 210.749,53.355 213.735,53.469 213.735 C 53.542 213.735,53.601 213.830,53.602 213.945 C 53.602 214.060,53.790 214.373,54.020 214.641 C 54.251 214.908,54.439 215.180,54.439 215.243 C 54.439 215.307,54.598 215.540,54.793 215.762 C 54.988 215.983,55.346 216.427,55.589 216.749 C 56.171 217.521,58.124 219.456,58.918 220.048 C 59.264 220.306,59.585 220.559,59.631 220.610 C 59.678 220.661,59.979 220.884,60.302 221.106 C 60.624 221.327,60.925 221.549,60.972 221.600 C 61.119 221.762,62.051 222.296,62.353 222.392 C 62.515 222.443,62.647 222.551,62.647 222.633 C 62.647 222.714,62.756 222.781,62.890 222.781 C 63.024 222.781,63.609 222.997,64.188 223.260 C 65.819 224.003,66.148 224.121,66.591 224.121 C 66.817 224.121,67.002 224.188,67.002 224.270 C 67.002 224.422,67.667 224.572,69.012 224.723 C 69.426 224.770,69.918 224.883,70.104 224.974 C 70.761 225.298,77.910 224.977,78.300 224.607 C 78.387 224.524,78.604 224.456,78.780 224.456 C 79.195 224.456,81.306 223.742,81.379 223.577 C 81.410 223.507,81.549 223.451,81.689 223.451 C 81.986 223.451,84.647 222.100,84.729 221.907 C 84.760 221.835,84.859 221.776,84.950 221.776 C 85.152 221.776,86.662 220.759,86.739 220.571 C 86.770 220.496,86.891 220.436,87.009 220.436 C 87.250 220.436,91.290 216.491,91.290 216.256 C 91.290 216.173,91.388 216.005,91.507 215.883 C 91.879 215.505,92.797 214.103,92.797 213.915 C 92.797 213.816,92.854 213.735,92.923 213.734 C 92.992 213.733,93.135 213.564,93.240 213.357 C 93.345 213.151,93.738 212.379,94.115 211.642 C 94.491 210.905,94.801 210.176,94.803 210.022 C 94.805 209.869,94.864 209.718,94.933 209.687 C 95.104 209.612,95.812 207.497,95.812 207.065 C 95.812 206.875,95.880 206.678,95.962 206.627 C 96.142 206.516,96.305 205.546,96.423 203.894 C 96.470 203.227,96.578 202.680,96.663 202.680 C 96.876 202.680,96.864 197.871,96.650 197.739 C 96.558 197.682,96.482 197.112,96.482 196.473 C 96.482 195.809,96.410 195.310,96.315 195.310 C 96.223 195.310,96.147 195.070,96.147 194.777 C 96.147 194.485,96.076 194.013,95.989 193.730 C 95.902 193.448,95.657 192.632,95.445 191.919 C 95.232 191.205,95.002 190.621,94.933 190.621 C 94.864 190.620,94.807 190.499,94.807 190.352 C 94.807 190.108,93.522 187.466,93.308 187.270 C 93.257 187.224,93.122 187.016,93.007 186.809 C 92.892 186.602,92.703 186.263,92.588 186.055 C 92.473 185.848,92.337 185.641,92.287 185.595 C 92.236 185.549,92.012 185.247,91.789 184.925 C 91.565 184.602,91.244 184.188,91.074 184.003 C 90.904 183.819,90.532 183.367,90.248 182.998 C 89.963 182.630,89.323 181.989,88.825 181.575 C 88.327 181.160,87.607 180.538,87.224 180.193 C 86.842 179.847,86.438 179.564,86.327 179.564 C 86.216 179.564,86.100 179.504,86.069 179.429 C 85.989 179.233,84.479 178.224,84.266 178.224 C 84.168 178.224,84.087 178.149,84.087 178.057 C 84.087 177.965,83.936 177.889,83.752 177.889 C 83.568 177.889,83.417 177.814,83.417 177.722 C 83.417 177.630,83.266 177.554,83.082 177.554 C 82.898 177.554,82.747 177.479,82.747 177.387 C 82.747 177.295,82.611 177.219,82.446 177.219 C 82.280 177.219,82.072 177.153,81.985 177.071 C 81.748 176.851,79.849 176.214,79.428 176.214 C 79.227 176.214,79.062 176.139,79.062 176.047 C 79.062 175.955,78.765 175.879,78.402 175.879 C 78.039 175.879,77.695 175.804,77.638 175.712 C 77.581 175.620,77.049 175.544,76.456 175.544 C 75.848 175.544,75.377 175.471,75.377 175.377 C 75.377 175.158,71.193 175.158,70.854 175.377 M75.963 175.879 C 76.020 175.972,76.477 176.047,76.978 176.047 C 77.479 176.047,77.889 176.122,77.889 176.214 C 77.889 176.307,78.191 176.382,78.559 176.382 C 78.928 176.382,79.229 176.457,79.229 176.549 C 79.229 176.642,79.456 176.717,79.732 176.717 C 80.008 176.717,80.235 176.792,80.235 176.884 C 80.235 176.977,80.381 177.052,80.560 177.052 C 80.738 177.052,80.931 177.127,80.988 177.219 C 81.045 177.312,81.276 177.387,81.501 177.387 C 81.726 177.387,81.910 177.462,81.910 177.554 C 81.910 177.647,82.060 177.722,82.245 177.722 C 82.429 177.722,82.580 177.797,82.580 177.889 C 82.580 177.982,82.730 178.057,82.915 178.057 C 83.099 178.057,83.250 178.132,83.250 178.224 C 83.250 178.317,83.400 178.392,83.585 178.392 C 83.769 178.392,83.920 178.455,83.920 178.533 C 83.920 178.611,84.277 178.856,84.714 179.078 C 85.151 179.299,85.728 179.688,85.995 179.941 C 86.263 180.195,86.550 180.402,86.633 180.402 C 86.716 180.402,87.326 180.928,87.990 181.572 C 88.653 182.215,89.290 182.743,89.405 182.744 C 89.521 182.746,89.615 182.842,89.615 182.957 C 89.615 183.073,89.916 183.488,90.285 183.879 C 90.653 184.270,90.955 184.647,90.956 184.716 C 90.956 184.784,91.163 185.067,91.416 185.343 C 91.669 185.620,91.983 186.053,92.114 186.307 C 92.244 186.560,92.414 186.767,92.491 186.767 C 92.567 186.767,92.630 186.912,92.630 187.088 C 92.630 187.265,92.687 187.434,92.758 187.465 C 92.957 187.552,94.642 191.004,94.641 191.322 C 94.640 191.478,94.715 191.652,94.807 191.709 C 94.899 191.765,94.975 191.958,94.975 192.137 C 94.975 192.316,95.050 192.462,95.142 192.462 C 95.235 192.462,95.310 192.722,95.310 193.039 C 95.310 193.356,95.385 193.662,95.477 193.719 C 95.570 193.776,95.645 194.077,95.645 194.389 C 95.645 194.700,95.720 195.002,95.812 195.059 C 95.905 195.116,95.980 195.568,95.980 196.064 C 95.980 196.559,96.055 197.012,96.147 197.069 C 96.249 197.131,96.315 198.351,96.315 200.168 C 96.315 201.984,96.249 203.204,96.147 203.266 C 96.055 203.323,95.980 203.776,95.980 204.271 C 95.980 204.767,95.905 205.219,95.812 205.276 C 95.720 205.333,95.645 205.635,95.645 205.946 C 95.645 206.258,95.570 206.559,95.477 206.616 C 95.385 206.673,95.310 206.979,95.310 207.296 C 95.310 207.613,95.235 207.873,95.142 207.873 C 95.050 207.873,94.975 208.099,94.975 208.375 C 94.975 208.652,94.899 208.878,94.807 208.878 C 94.715 208.878,94.640 208.988,94.640 209.124 C 94.640 209.259,94.489 209.638,94.305 209.966 C 94.121 210.295,93.970 210.711,93.970 210.893 C 93.970 211.074,93.894 211.223,93.802 211.223 C 93.710 211.223,93.635 211.374,93.635 211.558 C 93.635 211.742,93.571 211.893,93.494 211.893 C 93.416 211.893,93.171 212.251,92.949 212.688 C 92.728 213.126,92.490 213.509,92.420 213.540 C 92.351 213.571,92.295 213.740,92.295 213.917 C 92.295 214.093,92.232 214.238,92.156 214.238 C 92.079 214.238,91.909 214.443,91.779 214.695 C 91.648 214.946,91.258 215.454,90.913 215.824 C 90.567 216.195,90.285 216.556,90.285 216.627 C 90.285 216.795,88.154 218.927,87.985 218.930 C 87.914 218.931,87.479 219.290,87.018 219.729 C 86.558 220.167,85.902 220.658,85.561 220.820 C 85.219 220.982,84.843 221.207,84.723 221.322 C 84.433 221.600,81.045 223.286,80.779 223.284 C 80.664 223.284,80.570 223.358,80.570 223.451 C 80.570 223.543,80.343 223.618,80.067 223.618 C 79.791 223.618,79.564 223.693,79.564 223.786 C 79.564 223.878,79.305 223.953,78.988 223.953 C 78.671 223.953,78.365 224.028,78.308 224.121 C 78.251 224.213,77.908 224.288,77.545 224.288 C 77.181 224.288,76.884 224.363,76.884 224.456 C 76.884 224.562,75.604 224.623,73.377 224.623 C 71.219 224.623,69.829 224.559,69.765 224.456 C 69.709 224.363,69.332 224.288,68.928 224.288 C 68.524 224.288,68.147 224.213,68.090 224.121 C 68.034 224.028,67.807 223.953,67.588 223.953 C 67.368 223.953,67.142 223.878,67.085 223.786 C 67.028 223.693,66.723 223.618,66.406 223.618 C 66.089 223.618,65.829 223.543,65.829 223.451 C 65.829 223.358,65.718 223.283,65.583 223.283 C 65.448 223.283,65.068 223.132,64.740 222.948 C 64.412 222.764,63.995 222.613,63.814 222.613 C 63.633 222.613,63.484 222.538,63.484 222.446 C 63.484 222.353,63.333 222.278,63.149 222.278 C 62.965 222.278,62.814 222.203,62.814 222.111 C 62.814 222.018,62.698 221.943,62.556 221.943 C 62.414 221.943,62.136 221.792,61.938 221.608 C 61.740 221.424,61.480 221.273,61.359 221.273 C 61.238 221.273,61.139 221.210,61.139 221.134 C 61.139 221.057,60.933 220.888,60.682 220.757 C 60.431 220.626,59.923 220.237,59.552 219.891 C 59.182 219.546,58.821 219.263,58.750 219.263 C 58.581 219.263,56.449 217.131,56.449 216.962 C 56.449 216.891,56.166 216.530,55.821 216.159 C 55.475 215.789,55.086 215.281,54.955 215.030 C 54.824 214.778,54.655 214.573,54.578 214.573 C 54.502 214.573,54.439 214.474,54.439 214.353 C 54.439 214.232,54.307 213.987,54.146 213.809 C 53.985 213.630,53.746 213.277,53.615 213.023 C 53.484 212.770,53.315 212.563,53.238 212.563 C 53.161 212.563,53.099 212.412,53.099 212.228 C 53.099 212.044,53.023 211.893,52.931 211.893 C 52.839 211.893,52.764 211.742,52.764 211.558 C 52.764 211.374,52.688 211.223,52.596 211.223 C 52.504 211.223,52.429 211.072,52.429 210.888 C 52.429 210.704,52.353 210.553,52.261 210.553 C 52.169 210.553,52.094 210.369,52.094 210.144 C 52.094 209.919,52.018 209.688,51.926 209.631 C 51.834 209.575,51.759 209.382,51.759 209.203 C 51.759 209.024,51.683 208.878,51.591 208.878 C 51.499 208.878,51.424 208.694,51.424 208.469 C 51.424 208.244,51.348 208.013,51.256 207.956 C 51.164 207.900,51.089 207.598,51.089 207.286 C 51.089 206.975,51.013 206.673,50.921 206.616 C 50.829 206.559,50.754 206.258,50.754 205.946 C 50.754 205.635,50.678 205.333,50.586 205.276 C 50.494 205.219,50.419 204.767,50.419 204.271 C 50.419 203.776,50.343 203.323,50.251 203.266 C 50.150 203.204,50.084 202.040,50.084 200.335 C 50.084 198.630,50.150 197.466,50.251 197.404 C 50.343 197.347,50.419 196.815,50.419 196.221 C 50.419 195.614,50.492 195.142,50.586 195.142 C 50.678 195.142,50.754 194.845,50.754 194.482 C 50.754 194.119,50.829 193.776,50.921 193.719 C 51.013 193.662,51.089 193.436,51.089 193.216 C 51.089 192.997,51.164 192.771,51.256 192.714 C 51.348 192.657,51.424 192.430,51.424 192.211 C 51.424 191.992,51.499 191.765,51.591 191.709 C 51.683 191.652,51.758 191.478,51.758 191.322 C 51.756 191.004,53.442 187.552,53.641 187.465 C 53.711 187.434,53.769 187.265,53.769 187.088 C 53.769 186.912,53.831 186.767,53.908 186.767 C 53.985 186.767,54.154 186.560,54.285 186.307 C 54.416 186.053,54.655 185.700,54.816 185.521 C 54.977 185.343,55.110 185.116,55.112 185.019 C 55.118 184.758,59.467 180.515,60.008 180.243 C 60.262 180.115,60.469 179.948,60.469 179.871 C 60.469 179.795,60.568 179.732,60.689 179.732 C 60.810 179.732,61.054 179.600,61.233 179.439 C 61.412 179.278,61.765 179.039,62.018 178.908 C 62.272 178.777,62.479 178.608,62.479 178.531 C 62.479 178.455,62.630 178.392,62.814 178.392 C 62.998 178.392,63.149 178.317,63.149 178.224 C 63.149 178.132,63.300 178.057,63.484 178.057 C 63.668 178.057,63.819 177.982,63.819 177.889 C 63.819 177.797,63.970 177.722,64.154 177.722 C 64.338 177.722,64.489 177.647,64.489 177.554 C 64.489 177.462,64.640 177.387,64.824 177.387 C 65.008 177.387,65.159 177.312,65.159 177.219 C 65.159 177.127,65.343 177.052,65.568 177.052 C 65.793 177.052,66.023 176.977,66.080 176.884 C 66.137 176.792,66.406 176.717,66.677 176.717 C 66.947 176.717,67.169 176.642,67.169 176.549 C 67.169 176.457,67.429 176.382,67.746 176.382 C 68.063 176.382,68.369 176.307,68.425 176.214 C 68.482 176.122,68.935 176.047,69.430 176.047 C 69.926 176.047,70.379 175.972,70.436 175.879 C 70.497 175.779,71.606 175.712,73.199 175.712 C 74.792 175.712,75.901 175.779,75.963 175.879 " stroke="none" fill="#335464" fill-rule="evenodd"></path><path id="path2" d="" stroke="none" fill="#c8100b0" fill-rule="evenodd"></path><path id="path3" d="" stroke="none" fill="#c8100b0" fill-rule="evenodd"></path><path id="path4" d="" stroke="none" fill="#c8100b0" fill-rule="evenodd"></path></g></svg>